<mxfile host="app.diagrams.net" modified="2023-05-17T05:12:10.041Z" agent="Mozilla/5.0 (Windows NT 10.0; Win64; x64) AppleWebKit/537.36 (KHTML, like Gecko) Chrome/113.0.0.0 Safari/537.36" etag="zt2mw56apFllTV6voxeS" version="21.3.2" type="device">
  <diagram id="R2lEEEUBdFMjLlhIrx00" name="Page-1">
    <mxGraphModel dx="3475" dy="2553" grid="1" gridSize="10" guides="1" tooltips="1" connect="1" arrows="1" fold="1" page="1" pageScale="1" pageWidth="850" pageHeight="1100" math="0" shadow="0" extFonts="Permanent Marker^https://fonts.googleapis.com/css?family=Permanent+Marker">
      <root>
        <mxCell id="0" />
        <mxCell id="1" parent="0" />
        <mxCell id="C-vyLk0tnHw3VtMMgP7b-2" value="CppFactory" style="shape=table;startSize=30;container=1;collapsible=1;childLayout=tableLayout;fixedRows=1;rowLines=0;fontStyle=1;align=center;resizeLast=1;" parent="1" vertex="1">
          <mxGeometry y="250" width="530" height="220" as="geometry" />
        </mxCell>
        <mxCell id="C-vyLk0tnHw3VtMMgP7b-3" value="" style="shape=partialRectangle;collapsible=0;dropTarget=0;pointerEvents=0;fillColor=none;points=[[0,0.5],[1,0.5]];portConstraint=eastwest;top=0;left=0;right=0;bottom=1;" parent="C-vyLk0tnHw3VtMMgP7b-2" vertex="1">
          <mxGeometry y="30" width="530" height="30" as="geometry" />
        </mxCell>
        <mxCell id="C-vyLk0tnHw3VtMMgP7b-4" value="" style="shape=partialRectangle;overflow=hidden;connectable=0;fillColor=none;top=0;left=0;bottom=0;right=0;fontStyle=1;" parent="C-vyLk0tnHw3VtMMgP7b-3" vertex="1">
          <mxGeometry width="30" height="30" as="geometry">
            <mxRectangle width="30" height="30" as="alternateBounds" />
          </mxGeometry>
        </mxCell>
        <mxCell id="C-vyLk0tnHw3VtMMgP7b-5" value="" style="shape=partialRectangle;overflow=hidden;connectable=0;fillColor=none;top=0;left=0;bottom=0;right=0;align=left;spacingLeft=6;fontStyle=5;" parent="C-vyLk0tnHw3VtMMgP7b-3" vertex="1">
          <mxGeometry x="30" width="500" height="30" as="geometry">
            <mxRectangle width="500" height="30" as="alternateBounds" />
          </mxGeometry>
        </mxCell>
        <mxCell id="C-vyLk0tnHw3VtMMgP7b-6" value="" style="shape=partialRectangle;collapsible=0;dropTarget=0;pointerEvents=0;fillColor=none;points=[[0,0.5],[1,0.5]];portConstraint=eastwest;top=0;left=0;right=0;bottom=0;" parent="C-vyLk0tnHw3VtMMgP7b-2" vertex="1">
          <mxGeometry y="60" width="530" height="20" as="geometry" />
        </mxCell>
        <mxCell id="C-vyLk0tnHw3VtMMgP7b-7" value="+" style="shape=partialRectangle;overflow=hidden;connectable=0;fillColor=none;top=0;left=0;bottom=0;right=0;" parent="C-vyLk0tnHw3VtMMgP7b-6" vertex="1">
          <mxGeometry width="30" height="20" as="geometry">
            <mxRectangle width="30" height="20" as="alternateBounds" />
          </mxGeometry>
        </mxCell>
        <mxCell id="C-vyLk0tnHw3VtMMgP7b-8" value="CppFactory()" style="shape=partialRectangle;overflow=hidden;connectable=0;fillColor=none;top=0;left=0;bottom=0;right=0;align=left;spacingLeft=6;" parent="C-vyLk0tnHw3VtMMgP7b-6" vertex="1">
          <mxGeometry x="30" width="500" height="20" as="geometry">
            <mxRectangle width="500" height="20" as="alternateBounds" />
          </mxGeometry>
        </mxCell>
        <mxCell id="C-vyLk0tnHw3VtMMgP7b-9" value="" style="shape=partialRectangle;collapsible=0;dropTarget=0;pointerEvents=0;fillColor=none;points=[[0,0.5],[1,0.5]];portConstraint=eastwest;top=0;left=0;right=0;bottom=0;" parent="C-vyLk0tnHw3VtMMgP7b-2" vertex="1">
          <mxGeometry y="80" width="530" height="30" as="geometry" />
        </mxCell>
        <mxCell id="C-vyLk0tnHw3VtMMgP7b-10" value="+" style="shape=partialRectangle;overflow=hidden;connectable=0;fillColor=none;top=0;left=0;bottom=0;right=0;" parent="C-vyLk0tnHw3VtMMgP7b-9" vertex="1">
          <mxGeometry width="30" height="30" as="geometry">
            <mxRectangle width="30" height="30" as="alternateBounds" />
          </mxGeometry>
        </mxCell>
        <mxCell id="C-vyLk0tnHw3VtMMgP7b-11" value="~CppFactory()" style="shape=partialRectangle;overflow=hidden;connectable=0;fillColor=none;top=0;left=0;bottom=0;right=0;align=left;spacingLeft=6;" parent="C-vyLk0tnHw3VtMMgP7b-9" vertex="1">
          <mxGeometry x="30" width="500" height="30" as="geometry">
            <mxRectangle width="500" height="30" as="alternateBounds" />
          </mxGeometry>
        </mxCell>
        <mxCell id="muxyDqSTh95r2Ukf36ne-186" value="" style="shape=partialRectangle;collapsible=0;dropTarget=0;pointerEvents=0;fillColor=none;points=[[0,0.5],[1,0.5]];portConstraint=eastwest;top=0;left=0;right=0;bottom=0;" parent="C-vyLk0tnHw3VtMMgP7b-2" vertex="1">
          <mxGeometry y="110" width="530" height="40" as="geometry" />
        </mxCell>
        <mxCell id="muxyDqSTh95r2Ukf36ne-187" value="+" style="shape=partialRectangle;overflow=hidden;connectable=0;fillColor=none;top=0;left=0;bottom=0;right=0;" parent="muxyDqSTh95r2Ukf36ne-186" vertex="1">
          <mxGeometry width="30" height="40" as="geometry">
            <mxRectangle width="30" height="40" as="alternateBounds" />
          </mxGeometry>
        </mxCell>
        <mxCell id="muxyDqSTh95r2Ukf36ne-188" value="createClass(const string&amp; name):Â shared_ptr&lt;IUnit&gt;" style="shape=partialRectangle;overflow=hidden;connectable=0;fillColor=none;top=0;left=0;bottom=0;right=0;align=left;spacingLeft=6;" parent="muxyDqSTh95r2Ukf36ne-186" vertex="1">
          <mxGeometry x="30" width="500" height="40" as="geometry">
            <mxRectangle width="500" height="40" as="alternateBounds" />
          </mxGeometry>
        </mxCell>
        <mxCell id="muxyDqSTh95r2Ukf36ne-189" value="" style="shape=partialRectangle;collapsible=0;dropTarget=0;pointerEvents=0;fillColor=none;points=[[0,0.5],[1,0.5]];portConstraint=eastwest;top=0;left=0;right=0;bottom=0;" parent="C-vyLk0tnHw3VtMMgP7b-2" vertex="1">
          <mxGeometry y="150" width="530" height="30" as="geometry" />
        </mxCell>
        <mxCell id="muxyDqSTh95r2Ukf36ne-190" value="+" style="shape=partialRectangle;overflow=hidden;connectable=0;fillColor=none;top=0;left=0;bottom=0;right=0;" parent="muxyDqSTh95r2Ukf36ne-189" vertex="1">
          <mxGeometry width="30" height="30" as="geometry">
            <mxRectangle width="30" height="30" as="alternateBounds" />
          </mxGeometry>
        </mxCell>
        <mxCell id="muxyDqSTh95r2Ukf36ne-191" value="createMethod(const string&amp; name, const string&amp; returnType, Flags flags): shared_ptr&lt;IUnit&gt;" style="shape=partialRectangle;overflow=hidden;connectable=0;fillColor=none;top=0;left=0;bottom=0;right=0;align=left;spacingLeft=6;" parent="muxyDqSTh95r2Ukf36ne-189" vertex="1">
          <mxGeometry x="30" width="500" height="30" as="geometry">
            <mxRectangle width="500" height="30" as="alternateBounds" />
          </mxGeometry>
        </mxCell>
        <mxCell id="muxyDqSTh95r2Ukf36ne-192" value="" style="shape=partialRectangle;collapsible=0;dropTarget=0;pointerEvents=0;fillColor=none;points=[[0,0.5],[1,0.5]];portConstraint=eastwest;top=0;left=0;right=0;bottom=0;" parent="C-vyLk0tnHw3VtMMgP7b-2" vertex="1">
          <mxGeometry y="180" width="530" height="30" as="geometry" />
        </mxCell>
        <mxCell id="muxyDqSTh95r2Ukf36ne-193" value="+" style="shape=partialRectangle;overflow=hidden;connectable=0;fillColor=none;top=0;left=0;bottom=0;right=0;" parent="muxyDqSTh95r2Ukf36ne-192" vertex="1">
          <mxGeometry width="30" height="30" as="geometry">
            <mxRectangle width="30" height="30" as="alternateBounds" />
          </mxGeometry>
        </mxCell>
        <mxCell id="muxyDqSTh95r2Ukf36ne-194" value="createPrintOperator(const std::string&amp; text): shared_ptr&lt;IUnit&gt;" style="shape=partialRectangle;overflow=hidden;connectable=0;fillColor=none;top=0;left=0;bottom=0;right=0;align=left;spacingLeft=6;" parent="muxyDqSTh95r2Ukf36ne-192" vertex="1">
          <mxGeometry x="30" width="500" height="30" as="geometry">
            <mxRectangle width="500" height="30" as="alternateBounds" />
          </mxGeometry>
        </mxCell>
        <mxCell id="C-vyLk0tnHw3VtMMgP7b-13" value="CppClassUnit" style="shape=table;startSize=30;container=1;collapsible=1;childLayout=tableLayout;fixedRows=1;rowLines=0;fontStyle=1;align=center;resizeLast=1;" parent="1" vertex="1">
          <mxGeometry x="780" y="110" width="300" height="130" as="geometry" />
        </mxCell>
        <mxCell id="C-vyLk0tnHw3VtMMgP7b-14" value="" style="shape=partialRectangle;collapsible=0;dropTarget=0;pointerEvents=0;fillColor=none;points=[[0,0.5],[1,0.5]];portConstraint=eastwest;top=0;left=0;right=0;bottom=1;" parent="C-vyLk0tnHw3VtMMgP7b-13" vertex="1">
          <mxGeometry y="30" width="300" height="30" as="geometry" />
        </mxCell>
        <mxCell id="C-vyLk0tnHw3VtMMgP7b-15" value="+" style="shape=partialRectangle;overflow=hidden;connectable=0;fillColor=none;top=0;left=0;bottom=0;right=0;fontStyle=1;" parent="C-vyLk0tnHw3VtMMgP7b-14" vertex="1">
          <mxGeometry width="30" height="30" as="geometry">
            <mxRectangle width="30" height="30" as="alternateBounds" />
          </mxGeometry>
        </mxCell>
        <mxCell id="C-vyLk0tnHw3VtMMgP7b-16" value="CppClassUnit(const std::string&amp; name " style="shape=partialRectangle;overflow=hidden;connectable=0;fillColor=none;top=0;left=0;bottom=0;right=0;align=left;spacingLeft=6;fontStyle=5;" parent="C-vyLk0tnHw3VtMMgP7b-14" vertex="1">
          <mxGeometry x="30" width="270" height="30" as="geometry">
            <mxRectangle width="270" height="30" as="alternateBounds" />
          </mxGeometry>
        </mxCell>
        <mxCell id="C-vyLk0tnHw3VtMMgP7b-17" value="" style="shape=partialRectangle;collapsible=0;dropTarget=0;pointerEvents=0;fillColor=none;points=[[0,0.5],[1,0.5]];portConstraint=eastwest;top=0;left=0;right=0;bottom=0;" parent="C-vyLk0tnHw3VtMMgP7b-13" vertex="1">
          <mxGeometry y="60" width="300" height="30" as="geometry" />
        </mxCell>
        <mxCell id="C-vyLk0tnHw3VtMMgP7b-18" value="+" style="shape=partialRectangle;overflow=hidden;connectable=0;fillColor=none;top=0;left=0;bottom=0;right=0;" parent="C-vyLk0tnHw3VtMMgP7b-17" vertex="1">
          <mxGeometry width="30" height="30" as="geometry">
            <mxRectangle width="30" height="30" as="alternateBounds" />
          </mxGeometry>
        </mxCell>
        <mxCell id="C-vyLk0tnHw3VtMMgP7b-19" value="add(const std::shared_ptr&lt;IUnit&gt;&amp;, Flags): void" style="shape=partialRectangle;overflow=hidden;connectable=0;fillColor=none;top=0;left=0;bottom=0;right=0;align=left;spacingLeft=6;" parent="C-vyLk0tnHw3VtMMgP7b-17" vertex="1">
          <mxGeometry x="30" width="270" height="30" as="geometry">
            <mxRectangle width="270" height="30" as="alternateBounds" />
          </mxGeometry>
        </mxCell>
        <mxCell id="C-vyLk0tnHw3VtMMgP7b-20" value="" style="shape=partialRectangle;collapsible=0;dropTarget=0;pointerEvents=0;fillColor=none;points=[[0,0.5],[1,0.5]];portConstraint=eastwest;top=0;left=0;right=0;bottom=0;" parent="C-vyLk0tnHw3VtMMgP7b-13" vertex="1">
          <mxGeometry y="90" width="300" height="30" as="geometry" />
        </mxCell>
        <mxCell id="C-vyLk0tnHw3VtMMgP7b-21" value="+" style="shape=partialRectangle;overflow=hidden;connectable=0;fillColor=none;top=0;left=0;bottom=0;right=0;" parent="C-vyLk0tnHw3VtMMgP7b-20" vertex="1">
          <mxGeometry width="30" height="30" as="geometry">
            <mxRectangle width="30" height="30" as="alternateBounds" />
          </mxGeometry>
        </mxCell>
        <mxCell id="C-vyLk0tnHw3VtMMgP7b-22" value="compile(unsigned int level = 0) const: string" style="shape=partialRectangle;overflow=hidden;connectable=0;fillColor=none;top=0;left=0;bottom=0;right=0;align=left;spacingLeft=6;" parent="C-vyLk0tnHw3VtMMgP7b-20" vertex="1">
          <mxGeometry x="30" width="270" height="30" as="geometry">
            <mxRectangle width="270" height="30" as="alternateBounds" />
          </mxGeometry>
        </mxCell>
        <mxCell id="C-vyLk0tnHw3VtMMgP7b-23" value="IFactory" style="shape=table;startSize=30;container=1;collapsible=1;childLayout=tableLayout;fixedRows=1;rowLines=0;fontStyle=1;align=center;resizeLast=1;" parent="1" vertex="1">
          <mxGeometry x="-790" y="270" width="570" height="160" as="geometry" />
        </mxCell>
        <mxCell id="C-vyLk0tnHw3VtMMgP7b-24" value="" style="shape=partialRectangle;collapsible=0;dropTarget=0;pointerEvents=0;fillColor=none;points=[[0,0.5],[1,0.5]];portConstraint=eastwest;top=0;left=0;right=0;bottom=1;" parent="C-vyLk0tnHw3VtMMgP7b-23" vertex="1">
          <mxGeometry y="30" width="570" height="30" as="geometry" />
        </mxCell>
        <mxCell id="C-vyLk0tnHw3VtMMgP7b-25" value="" style="shape=partialRectangle;overflow=hidden;connectable=0;fillColor=none;top=0;left=0;bottom=0;right=0;fontStyle=1;" parent="C-vyLk0tnHw3VtMMgP7b-24" vertex="1">
          <mxGeometry width="30" height="30" as="geometry">
            <mxRectangle width="30" height="30" as="alternateBounds" />
          </mxGeometry>
        </mxCell>
        <mxCell id="C-vyLk0tnHw3VtMMgP7b-26" value="" style="shape=partialRectangle;overflow=hidden;connectable=0;fillColor=none;top=0;left=0;bottom=0;right=0;align=left;spacingLeft=6;fontStyle=5;" parent="C-vyLk0tnHw3VtMMgP7b-24" vertex="1">
          <mxGeometry x="30" width="540" height="30" as="geometry">
            <mxRectangle width="540" height="30" as="alternateBounds" />
          </mxGeometry>
        </mxCell>
        <mxCell id="C-vyLk0tnHw3VtMMgP7b-27" value="" style="shape=partialRectangle;collapsible=0;dropTarget=0;pointerEvents=0;fillColor=none;points=[[0,0.5],[1,0.5]];portConstraint=eastwest;top=0;left=0;right=0;bottom=0;" parent="C-vyLk0tnHw3VtMMgP7b-23" vertex="1">
          <mxGeometry y="60" width="570" height="30" as="geometry" />
        </mxCell>
        <mxCell id="C-vyLk0tnHw3VtMMgP7b-28" value="+" style="shape=partialRectangle;overflow=hidden;connectable=0;fillColor=none;top=0;left=0;bottom=0;right=0;" parent="C-vyLk0tnHw3VtMMgP7b-27" vertex="1">
          <mxGeometry width="30" height="30" as="geometry">
            <mxRectangle width="30" height="30" as="alternateBounds" />
          </mxGeometry>
        </mxCell>
        <mxCell id="C-vyLk0tnHw3VtMMgP7b-29" value="createClass(const string&amp; name) const: shared_ptr&lt;IUnit&gt;Â " style="shape=partialRectangle;overflow=hidden;connectable=0;fillColor=none;top=0;left=0;bottom=0;right=0;align=left;spacingLeft=6;" parent="C-vyLk0tnHw3VtMMgP7b-27" vertex="1">
          <mxGeometry x="30" width="540" height="30" as="geometry">
            <mxRectangle width="540" height="30" as="alternateBounds" />
          </mxGeometry>
        </mxCell>
        <mxCell id="muxyDqSTh95r2Ukf36ne-180" value="" style="shape=partialRectangle;collapsible=0;dropTarget=0;pointerEvents=0;fillColor=none;points=[[0,0.5],[1,0.5]];portConstraint=eastwest;top=0;left=0;right=0;bottom=0;" parent="C-vyLk0tnHw3VtMMgP7b-23" vertex="1">
          <mxGeometry y="90" width="570" height="30" as="geometry" />
        </mxCell>
        <mxCell id="muxyDqSTh95r2Ukf36ne-181" value="+" style="shape=partialRectangle;overflow=hidden;connectable=0;fillColor=none;top=0;left=0;bottom=0;right=0;" parent="muxyDqSTh95r2Ukf36ne-180" vertex="1">
          <mxGeometry width="30" height="30" as="geometry">
            <mxRectangle width="30" height="30" as="alternateBounds" />
          </mxGeometry>
        </mxCell>
        <mxCell id="muxyDqSTh95r2Ukf36ne-182" value="createMethod(const string&amp; name, const string&amp; returnType, Flags flags) const: shared_ptr&lt;IUnit&gt;" style="shape=partialRectangle;overflow=hidden;connectable=0;fillColor=none;top=0;left=0;bottom=0;right=0;align=left;spacingLeft=6;" parent="muxyDqSTh95r2Ukf36ne-180" vertex="1">
          <mxGeometry x="30" width="540" height="30" as="geometry">
            <mxRectangle width="540" height="30" as="alternateBounds" />
          </mxGeometry>
        </mxCell>
        <mxCell id="muxyDqSTh95r2Ukf36ne-183" value="" style="shape=partialRectangle;collapsible=0;dropTarget=0;pointerEvents=0;fillColor=none;points=[[0,0.5],[1,0.5]];portConstraint=eastwest;top=0;left=0;right=0;bottom=0;" parent="C-vyLk0tnHw3VtMMgP7b-23" vertex="1">
          <mxGeometry y="120" width="570" height="30" as="geometry" />
        </mxCell>
        <mxCell id="muxyDqSTh95r2Ukf36ne-184" value="+" style="shape=partialRectangle;overflow=hidden;connectable=0;fillColor=none;top=0;left=0;bottom=0;right=0;" parent="muxyDqSTh95r2Ukf36ne-183" vertex="1">
          <mxGeometry width="30" height="30" as="geometry">
            <mxRectangle width="30" height="30" as="alternateBounds" />
          </mxGeometry>
        </mxCell>
        <mxCell id="muxyDqSTh95r2Ukf36ne-185" value="createPrintMethod(const std::string&amp; text) const: shared_ptr&lt;IUnit&gt;" style="shape=partialRectangle;overflow=hidden;connectable=0;fillColor=none;top=0;left=0;bottom=0;right=0;align=left;spacingLeft=6;" parent="muxyDqSTh95r2Ukf36ne-183" vertex="1">
          <mxGeometry x="30" width="540" height="30" as="geometry">
            <mxRectangle width="540" height="30" as="alternateBounds" />
          </mxGeometry>
        </mxCell>
        <mxCell id="muxyDqSTh95r2Ukf36ne-52" value="IMethodUnit" style="shape=table;startSize=30;container=1;collapsible=1;childLayout=tableLayout;fixedRows=1;rowLines=0;fontStyle=1;align=center;resizeLast=1;" parent="1" vertex="1">
          <mxGeometry x="1350" y="175" width="330" height="255" as="geometry" />
        </mxCell>
        <mxCell id="muxyDqSTh95r2Ukf36ne-53" value="" style="shape=partialRectangle;collapsible=0;dropTarget=0;pointerEvents=0;fillColor=none;points=[[0,0.5],[1,0.5]];portConstraint=eastwest;top=0;left=0;right=0;bottom=1;" parent="muxyDqSTh95r2Ukf36ne-52" vertex="1">
          <mxGeometry y="30" width="330" height="155" as="geometry" />
        </mxCell>
        <mxCell id="muxyDqSTh95r2Ukf36ne-54" value="+&#xa;&#xa;#&#xa;&#xa;#&#xa;&#xa;#&#xa;&#xa;#" style="shape=partialRectangle;overflow=hidden;connectable=0;fillColor=none;top=0;left=0;bottom=0;right=0;fontStyle=1;" parent="muxyDqSTh95r2Ukf36ne-53" vertex="1">
          <mxGeometry width="30" height="155" as="geometry">
            <mxRectangle width="30" height="155" as="alternateBounds" />
          </mxGeometry>
        </mxCell>
        <mxCell id="muxyDqSTh95r2Ukf36ne-55" value="AccessModifier: enum&#xa;&#xa;m_methodName: stringÂ &#xa;&#xa;m_returnType: stringÂ &#xa;&#xa;m_flags: FlagsÂ &#xa;&#xa;m_body: vector&lt;shared_ptr&lt;IUnit&gt;&gt;" style="shape=partialRectangle;overflow=hidden;connectable=0;fillColor=none;top=0;left=0;bottom=0;right=0;align=left;spacingLeft=6;fontStyle=5;" parent="muxyDqSTh95r2Ukf36ne-53" vertex="1">
          <mxGeometry x="30" width="300" height="155" as="geometry">
            <mxRectangle width="300" height="155" as="alternateBounds" />
          </mxGeometry>
        </mxCell>
        <mxCell id="muxyDqSTh95r2Ukf36ne-56" value="" style="shape=partialRectangle;collapsible=0;dropTarget=0;pointerEvents=0;fillColor=none;points=[[0,0.5],[1,0.5]];portConstraint=eastwest;top=0;left=0;right=0;bottom=0;" parent="muxyDqSTh95r2Ukf36ne-52" vertex="1">
          <mxGeometry y="185" width="330" height="30" as="geometry" />
        </mxCell>
        <mxCell id="muxyDqSTh95r2Ukf36ne-57" value="+" style="shape=partialRectangle;overflow=hidden;connectable=0;fillColor=none;top=0;left=0;bottom=0;right=0;" parent="muxyDqSTh95r2Ukf36ne-56" vertex="1">
          <mxGeometry width="30" height="30" as="geometry">
            <mxRectangle width="30" height="30" as="alternateBounds" />
          </mxGeometry>
        </mxCell>
        <mxCell id="muxyDqSTh95r2Ukf36ne-58" value="virtual add(const std::shared_ptr&lt;IUnit&gt;&amp;, Flags): void" style="shape=partialRectangle;overflow=hidden;connectable=0;fillColor=none;top=0;left=0;bottom=0;right=0;align=left;spacingLeft=6;" parent="muxyDqSTh95r2Ukf36ne-56" vertex="1">
          <mxGeometry x="30" width="300" height="30" as="geometry">
            <mxRectangle width="300" height="30" as="alternateBounds" />
          </mxGeometry>
        </mxCell>
        <mxCell id="muxyDqSTh95r2Ukf36ne-59" value="" style="shape=partialRectangle;collapsible=0;dropTarget=0;pointerEvents=0;fillColor=none;points=[[0,0.5],[1,0.5]];portConstraint=eastwest;top=0;left=0;right=0;bottom=0;" parent="muxyDqSTh95r2Ukf36ne-52" vertex="1">
          <mxGeometry y="215" width="330" height="30" as="geometry" />
        </mxCell>
        <mxCell id="muxyDqSTh95r2Ukf36ne-60" value="+" style="shape=partialRectangle;overflow=hidden;connectable=0;fillColor=none;top=0;left=0;bottom=0;right=0;" parent="muxyDqSTh95r2Ukf36ne-59" vertex="1">
          <mxGeometry width="30" height="30" as="geometry">
            <mxRectangle width="30" height="30" as="alternateBounds" />
          </mxGeometry>
        </mxCell>
        <mxCell id="muxyDqSTh95r2Ukf36ne-61" value="virtual compile(unsigned int level = 0) const: string" style="shape=partialRectangle;overflow=hidden;connectable=0;fillColor=none;top=0;left=0;bottom=0;right=0;align=left;spacingLeft=6;" parent="muxyDqSTh95r2Ukf36ne-59" vertex="1">
          <mxGeometry x="30" width="300" height="30" as="geometry">
            <mxRectangle width="300" height="30" as="alternateBounds" />
          </mxGeometry>
        </mxCell>
        <mxCell id="muxyDqSTh95r2Ukf36ne-82" value="CppMethodUnit" style="shape=table;startSize=30;container=1;collapsible=1;childLayout=tableLayout;fixedRows=1;rowLines=0;fontStyle=1;align=center;resizeLast=1;" parent="1" vertex="1">
          <mxGeometry x="610" y="250" width="470" height="130" as="geometry" />
        </mxCell>
        <mxCell id="muxyDqSTh95r2Ukf36ne-83" value="" style="shape=partialRectangle;collapsible=0;dropTarget=0;pointerEvents=0;fillColor=none;points=[[0,0.5],[1,0.5]];portConstraint=eastwest;top=0;left=0;right=0;bottom=1;" parent="muxyDqSTh95r2Ukf36ne-82" vertex="1">
          <mxGeometry y="30" width="470" height="30" as="geometry" />
        </mxCell>
        <mxCell id="muxyDqSTh95r2Ukf36ne-84" value="+" style="shape=partialRectangle;overflow=hidden;connectable=0;fillColor=none;top=0;left=0;bottom=0;right=0;fontStyle=1;" parent="muxyDqSTh95r2Ukf36ne-83" vertex="1">
          <mxGeometry width="30" height="30" as="geometry">
            <mxRectangle width="30" height="30" as="alternateBounds" />
          </mxGeometry>
        </mxCell>
        <mxCell id="muxyDqSTh95r2Ukf36ne-85" value="CppMethodUnit(const string&amp; name, const string&amp; returnType, Flags flags) " style="shape=partialRectangle;overflow=hidden;connectable=0;fillColor=none;top=0;left=0;bottom=0;right=0;align=left;spacingLeft=6;fontStyle=5;" parent="muxyDqSTh95r2Ukf36ne-83" vertex="1">
          <mxGeometry x="30" width="440" height="30" as="geometry">
            <mxRectangle width="440" height="30" as="alternateBounds" />
          </mxGeometry>
        </mxCell>
        <mxCell id="muxyDqSTh95r2Ukf36ne-86" value="" style="shape=partialRectangle;collapsible=0;dropTarget=0;pointerEvents=0;fillColor=none;points=[[0,0.5],[1,0.5]];portConstraint=eastwest;top=0;left=0;right=0;bottom=0;" parent="muxyDqSTh95r2Ukf36ne-82" vertex="1">
          <mxGeometry y="60" width="470" height="30" as="geometry" />
        </mxCell>
        <mxCell id="muxyDqSTh95r2Ukf36ne-87" value="+" style="shape=partialRectangle;overflow=hidden;connectable=0;fillColor=none;top=0;left=0;bottom=0;right=0;" parent="muxyDqSTh95r2Ukf36ne-86" vertex="1">
          <mxGeometry width="30" height="30" as="geometry">
            <mxRectangle width="30" height="30" as="alternateBounds" />
          </mxGeometry>
        </mxCell>
        <mxCell id="muxyDqSTh95r2Ukf36ne-88" value="add(const shared_ptr&lt;IUnit&gt;&amp; unit, Flags flags = 0): void" style="shape=partialRectangle;overflow=hidden;connectable=0;fillColor=none;top=0;left=0;bottom=0;right=0;align=left;spacingLeft=6;" parent="muxyDqSTh95r2Ukf36ne-86" vertex="1">
          <mxGeometry x="30" width="440" height="30" as="geometry">
            <mxRectangle width="440" height="30" as="alternateBounds" />
          </mxGeometry>
        </mxCell>
        <mxCell id="muxyDqSTh95r2Ukf36ne-89" value="" style="shape=partialRectangle;collapsible=0;dropTarget=0;pointerEvents=0;fillColor=none;points=[[0,0.5],[1,0.5]];portConstraint=eastwest;top=0;left=0;right=0;bottom=0;" parent="muxyDqSTh95r2Ukf36ne-82" vertex="1">
          <mxGeometry y="90" width="470" height="30" as="geometry" />
        </mxCell>
        <mxCell id="muxyDqSTh95r2Ukf36ne-90" value="+" style="shape=partialRectangle;overflow=hidden;connectable=0;fillColor=none;top=0;left=0;bottom=0;right=0;" parent="muxyDqSTh95r2Ukf36ne-89" vertex="1">
          <mxGeometry width="30" height="30" as="geometry">
            <mxRectangle width="30" height="30" as="alternateBounds" />
          </mxGeometry>
        </mxCell>
        <mxCell id="muxyDqSTh95r2Ukf36ne-91" value="compile( unsigned int level = 0 ) const: string" style="shape=partialRectangle;overflow=hidden;connectable=0;fillColor=none;top=0;left=0;bottom=0;right=0;align=left;spacingLeft=6;" parent="muxyDqSTh95r2Ukf36ne-89" vertex="1">
          <mxGeometry x="30" width="440" height="30" as="geometry">
            <mxRectangle width="440" height="30" as="alternateBounds" />
          </mxGeometry>
        </mxCell>
        <mxCell id="muxyDqSTh95r2Ukf36ne-92" value="JavaMethodUnit" style="shape=table;startSize=30;container=1;collapsible=1;childLayout=tableLayout;fixedRows=1;rowLines=0;fontStyle=1;align=center;resizeLast=1;" parent="1" vertex="1">
          <mxGeometry x="830" y="-240" width="250" height="130" as="geometry" />
        </mxCell>
        <mxCell id="muxyDqSTh95r2Ukf36ne-93" value="" style="shape=partialRectangle;collapsible=0;dropTarget=0;pointerEvents=0;fillColor=none;points=[[0,0.5],[1,0.5]];portConstraint=eastwest;top=0;left=0;right=0;bottom=1;" parent="muxyDqSTh95r2Ukf36ne-92" vertex="1">
          <mxGeometry y="30" width="250" height="30" as="geometry" />
        </mxCell>
        <mxCell id="muxyDqSTh95r2Ukf36ne-94" value="PK" style="shape=partialRectangle;overflow=hidden;connectable=0;fillColor=none;top=0;left=0;bottom=0;right=0;fontStyle=1;" parent="muxyDqSTh95r2Ukf36ne-93" vertex="1">
          <mxGeometry width="30" height="30" as="geometry">
            <mxRectangle width="30" height="30" as="alternateBounds" />
          </mxGeometry>
        </mxCell>
        <mxCell id="muxyDqSTh95r2Ukf36ne-95" value="shipment_idÂ int NOT NULL " style="shape=partialRectangle;overflow=hidden;connectable=0;fillColor=none;top=0;left=0;bottom=0;right=0;align=left;spacingLeft=6;fontStyle=5;" parent="muxyDqSTh95r2Ukf36ne-93" vertex="1">
          <mxGeometry x="30" width="220" height="30" as="geometry">
            <mxRectangle width="220" height="30" as="alternateBounds" />
          </mxGeometry>
        </mxCell>
        <mxCell id="muxyDqSTh95r2Ukf36ne-96" value="" style="shape=partialRectangle;collapsible=0;dropTarget=0;pointerEvents=0;fillColor=none;points=[[0,0.5],[1,0.5]];portConstraint=eastwest;top=0;left=0;right=0;bottom=0;" parent="muxyDqSTh95r2Ukf36ne-92" vertex="1">
          <mxGeometry y="60" width="250" height="30" as="geometry" />
        </mxCell>
        <mxCell id="muxyDqSTh95r2Ukf36ne-97" value="FK1" style="shape=partialRectangle;overflow=hidden;connectable=0;fillColor=none;top=0;left=0;bottom=0;right=0;" parent="muxyDqSTh95r2Ukf36ne-96" vertex="1">
          <mxGeometry width="30" height="30" as="geometry">
            <mxRectangle width="30" height="30" as="alternateBounds" />
          </mxGeometry>
        </mxCell>
        <mxCell id="muxyDqSTh95r2Ukf36ne-98" value="order_id int NOT NULL" style="shape=partialRectangle;overflow=hidden;connectable=0;fillColor=none;top=0;left=0;bottom=0;right=0;align=left;spacingLeft=6;" parent="muxyDqSTh95r2Ukf36ne-96" vertex="1">
          <mxGeometry x="30" width="220" height="30" as="geometry">
            <mxRectangle width="220" height="30" as="alternateBounds" />
          </mxGeometry>
        </mxCell>
        <mxCell id="muxyDqSTh95r2Ukf36ne-99" value="" style="shape=partialRectangle;collapsible=0;dropTarget=0;pointerEvents=0;fillColor=none;points=[[0,0.5],[1,0.5]];portConstraint=eastwest;top=0;left=0;right=0;bottom=0;" parent="muxyDqSTh95r2Ukf36ne-92" vertex="1">
          <mxGeometry y="90" width="250" height="30" as="geometry" />
        </mxCell>
        <mxCell id="muxyDqSTh95r2Ukf36ne-100" value="" style="shape=partialRectangle;overflow=hidden;connectable=0;fillColor=none;top=0;left=0;bottom=0;right=0;" parent="muxyDqSTh95r2Ukf36ne-99" vertex="1">
          <mxGeometry width="30" height="30" as="geometry">
            <mxRectangle width="30" height="30" as="alternateBounds" />
          </mxGeometry>
        </mxCell>
        <mxCell id="muxyDqSTh95r2Ukf36ne-101" value="shipment_date date NOT NULL" style="shape=partialRectangle;overflow=hidden;connectable=0;fillColor=none;top=0;left=0;bottom=0;right=0;align=left;spacingLeft=6;" parent="muxyDqSTh95r2Ukf36ne-99" vertex="1">
          <mxGeometry x="30" width="220" height="30" as="geometry">
            <mxRectangle width="220" height="30" as="alternateBounds" />
          </mxGeometry>
        </mxCell>
        <mxCell id="muxyDqSTh95r2Ukf36ne-112" value="JavaPrintOperatorUnit" style="shape=table;startSize=30;container=1;collapsible=1;childLayout=tableLayout;fixedRows=1;rowLines=0;fontStyle=1;align=center;resizeLast=1;" parent="1" vertex="1">
          <mxGeometry x="830" y="-100" width="250" height="130" as="geometry" />
        </mxCell>
        <mxCell id="muxyDqSTh95r2Ukf36ne-113" value="" style="shape=partialRectangle;collapsible=0;dropTarget=0;pointerEvents=0;fillColor=none;points=[[0,0.5],[1,0.5]];portConstraint=eastwest;top=0;left=0;right=0;bottom=1;" parent="muxyDqSTh95r2Ukf36ne-112" vertex="1">
          <mxGeometry y="30" width="250" height="30" as="geometry" />
        </mxCell>
        <mxCell id="muxyDqSTh95r2Ukf36ne-114" value="PK" style="shape=partialRectangle;overflow=hidden;connectable=0;fillColor=none;top=0;left=0;bottom=0;right=0;fontStyle=1;" parent="muxyDqSTh95r2Ukf36ne-113" vertex="1">
          <mxGeometry width="30" height="30" as="geometry">
            <mxRectangle width="30" height="30" as="alternateBounds" />
          </mxGeometry>
        </mxCell>
        <mxCell id="muxyDqSTh95r2Ukf36ne-115" value="shipment_idÂ int NOT NULL " style="shape=partialRectangle;overflow=hidden;connectable=0;fillColor=none;top=0;left=0;bottom=0;right=0;align=left;spacingLeft=6;fontStyle=5;" parent="muxyDqSTh95r2Ukf36ne-113" vertex="1">
          <mxGeometry x="30" width="220" height="30" as="geometry">
            <mxRectangle width="220" height="30" as="alternateBounds" />
          </mxGeometry>
        </mxCell>
        <mxCell id="muxyDqSTh95r2Ukf36ne-116" value="" style="shape=partialRectangle;collapsible=0;dropTarget=0;pointerEvents=0;fillColor=none;points=[[0,0.5],[1,0.5]];portConstraint=eastwest;top=0;left=0;right=0;bottom=0;" parent="muxyDqSTh95r2Ukf36ne-112" vertex="1">
          <mxGeometry y="60" width="250" height="30" as="geometry" />
        </mxCell>
        <mxCell id="muxyDqSTh95r2Ukf36ne-117" value="FK1" style="shape=partialRectangle;overflow=hidden;connectable=0;fillColor=none;top=0;left=0;bottom=0;right=0;" parent="muxyDqSTh95r2Ukf36ne-116" vertex="1">
          <mxGeometry width="30" height="30" as="geometry">
            <mxRectangle width="30" height="30" as="alternateBounds" />
          </mxGeometry>
        </mxCell>
        <mxCell id="muxyDqSTh95r2Ukf36ne-118" value="order_id int NOT NULL" style="shape=partialRectangle;overflow=hidden;connectable=0;fillColor=none;top=0;left=0;bottom=0;right=0;align=left;spacingLeft=6;" parent="muxyDqSTh95r2Ukf36ne-116" vertex="1">
          <mxGeometry x="30" width="220" height="30" as="geometry">
            <mxRectangle width="220" height="30" as="alternateBounds" />
          </mxGeometry>
        </mxCell>
        <mxCell id="muxyDqSTh95r2Ukf36ne-119" value="" style="shape=partialRectangle;collapsible=0;dropTarget=0;pointerEvents=0;fillColor=none;points=[[0,0.5],[1,0.5]];portConstraint=eastwest;top=0;left=0;right=0;bottom=0;" parent="muxyDqSTh95r2Ukf36ne-112" vertex="1">
          <mxGeometry y="90" width="250" height="30" as="geometry" />
        </mxCell>
        <mxCell id="muxyDqSTh95r2Ukf36ne-120" value="" style="shape=partialRectangle;overflow=hidden;connectable=0;fillColor=none;top=0;left=0;bottom=0;right=0;" parent="muxyDqSTh95r2Ukf36ne-119" vertex="1">
          <mxGeometry width="30" height="30" as="geometry">
            <mxRectangle width="30" height="30" as="alternateBounds" />
          </mxGeometry>
        </mxCell>
        <mxCell id="muxyDqSTh95r2Ukf36ne-121" value="shipment_date date NOT NULL" style="shape=partialRectangle;overflow=hidden;connectable=0;fillColor=none;top=0;left=0;bottom=0;right=0;align=left;spacingLeft=6;" parent="muxyDqSTh95r2Ukf36ne-119" vertex="1">
          <mxGeometry x="30" width="220" height="30" as="geometry">
            <mxRectangle width="220" height="30" as="alternateBounds" />
          </mxGeometry>
        </mxCell>
        <mxCell id="muxyDqSTh95r2Ukf36ne-122" value="CppPrintOperatorUnit" style="shape=table;startSize=30;container=1;collapsible=1;childLayout=tableLayout;fixedRows=1;rowLines=0;fontStyle=1;align=center;resizeLast=1;" parent="1" vertex="1">
          <mxGeometry x="830" y="390" width="250" height="130" as="geometry" />
        </mxCell>
        <mxCell id="muxyDqSTh95r2Ukf36ne-123" value="" style="shape=partialRectangle;collapsible=0;dropTarget=0;pointerEvents=0;fillColor=none;points=[[0,0.5],[1,0.5]];portConstraint=eastwest;top=0;left=0;right=0;bottom=1;" parent="muxyDqSTh95r2Ukf36ne-122" vertex="1">
          <mxGeometry y="30" width="250" height="30" as="geometry" />
        </mxCell>
        <mxCell id="muxyDqSTh95r2Ukf36ne-124" value="PK" style="shape=partialRectangle;overflow=hidden;connectable=0;fillColor=none;top=0;left=0;bottom=0;right=0;fontStyle=1;" parent="muxyDqSTh95r2Ukf36ne-123" vertex="1">
          <mxGeometry width="30" height="30" as="geometry">
            <mxRectangle width="30" height="30" as="alternateBounds" />
          </mxGeometry>
        </mxCell>
        <mxCell id="muxyDqSTh95r2Ukf36ne-125" value="shipment_idÂ int NOT NULL " style="shape=partialRectangle;overflow=hidden;connectable=0;fillColor=none;top=0;left=0;bottom=0;right=0;align=left;spacingLeft=6;fontStyle=5;" parent="muxyDqSTh95r2Ukf36ne-123" vertex="1">
          <mxGeometry x="30" width="220" height="30" as="geometry">
            <mxRectangle width="220" height="30" as="alternateBounds" />
          </mxGeometry>
        </mxCell>
        <mxCell id="muxyDqSTh95r2Ukf36ne-126" value="" style="shape=partialRectangle;collapsible=0;dropTarget=0;pointerEvents=0;fillColor=none;points=[[0,0.5],[1,0.5]];portConstraint=eastwest;top=0;left=0;right=0;bottom=0;" parent="muxyDqSTh95r2Ukf36ne-122" vertex="1">
          <mxGeometry y="60" width="250" height="30" as="geometry" />
        </mxCell>
        <mxCell id="muxyDqSTh95r2Ukf36ne-127" value="FK1" style="shape=partialRectangle;overflow=hidden;connectable=0;fillColor=none;top=0;left=0;bottom=0;right=0;" parent="muxyDqSTh95r2Ukf36ne-126" vertex="1">
          <mxGeometry width="30" height="30" as="geometry">
            <mxRectangle width="30" height="30" as="alternateBounds" />
          </mxGeometry>
        </mxCell>
        <mxCell id="muxyDqSTh95r2Ukf36ne-128" value="order_id int NOT NULL" style="shape=partialRectangle;overflow=hidden;connectable=0;fillColor=none;top=0;left=0;bottom=0;right=0;align=left;spacingLeft=6;" parent="muxyDqSTh95r2Ukf36ne-126" vertex="1">
          <mxGeometry x="30" width="220" height="30" as="geometry">
            <mxRectangle width="220" height="30" as="alternateBounds" />
          </mxGeometry>
        </mxCell>
        <mxCell id="muxyDqSTh95r2Ukf36ne-129" value="" style="shape=partialRectangle;collapsible=0;dropTarget=0;pointerEvents=0;fillColor=none;points=[[0,0.5],[1,0.5]];portConstraint=eastwest;top=0;left=0;right=0;bottom=0;" parent="muxyDqSTh95r2Ukf36ne-122" vertex="1">
          <mxGeometry y="90" width="250" height="30" as="geometry" />
        </mxCell>
        <mxCell id="muxyDqSTh95r2Ukf36ne-130" value="" style="shape=partialRectangle;overflow=hidden;connectable=0;fillColor=none;top=0;left=0;bottom=0;right=0;" parent="muxyDqSTh95r2Ukf36ne-129" vertex="1">
          <mxGeometry width="30" height="30" as="geometry">
            <mxRectangle width="30" height="30" as="alternateBounds" />
          </mxGeometry>
        </mxCell>
        <mxCell id="muxyDqSTh95r2Ukf36ne-131" value="shipment_date date NOT NULL" style="shape=partialRectangle;overflow=hidden;connectable=0;fillColor=none;top=0;left=0;bottom=0;right=0;align=left;spacingLeft=6;" parent="muxyDqSTh95r2Ukf36ne-129" vertex="1">
          <mxGeometry x="30" width="220" height="30" as="geometry">
            <mxRectangle width="220" height="30" as="alternateBounds" />
          </mxGeometry>
        </mxCell>
        <mxCell id="muxyDqSTh95r2Ukf36ne-132" value="CsharpPrintOperatorUnit" style="shape=table;startSize=30;container=1;collapsible=1;childLayout=tableLayout;fixedRows=1;rowLines=0;fontStyle=1;align=center;resizeLast=1;" parent="1" vertex="1">
          <mxGeometry x="830" y="880" width="250" height="130" as="geometry" />
        </mxCell>
        <mxCell id="muxyDqSTh95r2Ukf36ne-133" value="" style="shape=partialRectangle;collapsible=0;dropTarget=0;pointerEvents=0;fillColor=none;points=[[0,0.5],[1,0.5]];portConstraint=eastwest;top=0;left=0;right=0;bottom=1;" parent="muxyDqSTh95r2Ukf36ne-132" vertex="1">
          <mxGeometry y="30" width="250" height="30" as="geometry" />
        </mxCell>
        <mxCell id="muxyDqSTh95r2Ukf36ne-134" value="PK" style="shape=partialRectangle;overflow=hidden;connectable=0;fillColor=none;top=0;left=0;bottom=0;right=0;fontStyle=1;" parent="muxyDqSTh95r2Ukf36ne-133" vertex="1">
          <mxGeometry width="30" height="30" as="geometry">
            <mxRectangle width="30" height="30" as="alternateBounds" />
          </mxGeometry>
        </mxCell>
        <mxCell id="muxyDqSTh95r2Ukf36ne-135" value="shipment_idÂ int NOT NULL " style="shape=partialRectangle;overflow=hidden;connectable=0;fillColor=none;top=0;left=0;bottom=0;right=0;align=left;spacingLeft=6;fontStyle=5;" parent="muxyDqSTh95r2Ukf36ne-133" vertex="1">
          <mxGeometry x="30" width="220" height="30" as="geometry">
            <mxRectangle width="220" height="30" as="alternateBounds" />
          </mxGeometry>
        </mxCell>
        <mxCell id="muxyDqSTh95r2Ukf36ne-136" value="" style="shape=partialRectangle;collapsible=0;dropTarget=0;pointerEvents=0;fillColor=none;points=[[0,0.5],[1,0.5]];portConstraint=eastwest;top=0;left=0;right=0;bottom=0;" parent="muxyDqSTh95r2Ukf36ne-132" vertex="1">
          <mxGeometry y="60" width="250" height="30" as="geometry" />
        </mxCell>
        <mxCell id="muxyDqSTh95r2Ukf36ne-137" value="FK1" style="shape=partialRectangle;overflow=hidden;connectable=0;fillColor=none;top=0;left=0;bottom=0;right=0;" parent="muxyDqSTh95r2Ukf36ne-136" vertex="1">
          <mxGeometry width="30" height="30" as="geometry">
            <mxRectangle width="30" height="30" as="alternateBounds" />
          </mxGeometry>
        </mxCell>
        <mxCell id="muxyDqSTh95r2Ukf36ne-138" value="order_id int NOT NULL" style="shape=partialRectangle;overflow=hidden;connectable=0;fillColor=none;top=0;left=0;bottom=0;right=0;align=left;spacingLeft=6;" parent="muxyDqSTh95r2Ukf36ne-136" vertex="1">
          <mxGeometry x="30" width="220" height="30" as="geometry">
            <mxRectangle width="220" height="30" as="alternateBounds" />
          </mxGeometry>
        </mxCell>
        <mxCell id="muxyDqSTh95r2Ukf36ne-139" value="" style="shape=partialRectangle;collapsible=0;dropTarget=0;pointerEvents=0;fillColor=none;points=[[0,0.5],[1,0.5]];portConstraint=eastwest;top=0;left=0;right=0;bottom=0;" parent="muxyDqSTh95r2Ukf36ne-132" vertex="1">
          <mxGeometry y="90" width="250" height="30" as="geometry" />
        </mxCell>
        <mxCell id="muxyDqSTh95r2Ukf36ne-140" value="" style="shape=partialRectangle;overflow=hidden;connectable=0;fillColor=none;top=0;left=0;bottom=0;right=0;" parent="muxyDqSTh95r2Ukf36ne-139" vertex="1">
          <mxGeometry width="30" height="30" as="geometry">
            <mxRectangle width="30" height="30" as="alternateBounds" />
          </mxGeometry>
        </mxCell>
        <mxCell id="muxyDqSTh95r2Ukf36ne-141" value="shipment_date date NOT NULL" style="shape=partialRectangle;overflow=hidden;connectable=0;fillColor=none;top=0;left=0;bottom=0;right=0;align=left;spacingLeft=6;" parent="muxyDqSTh95r2Ukf36ne-139" vertex="1">
          <mxGeometry x="30" width="220" height="30" as="geometry">
            <mxRectangle width="220" height="30" as="alternateBounds" />
          </mxGeometry>
        </mxCell>
        <mxCell id="muxyDqSTh95r2Ukf36ne-142" value="IUnit" style="shape=table;startSize=30;container=1;collapsible=1;childLayout=tableLayout;fixedRows=1;rowLines=0;fontStyle=1;align=center;resizeLast=1;" parent="1" vertex="1">
          <mxGeometry x="1880" y="220" width="350" height="190" as="geometry" />
        </mxCell>
        <mxCell id="muxyDqSTh95r2Ukf36ne-143" value="" style="shape=partialRectangle;collapsible=0;dropTarget=0;pointerEvents=0;fillColor=none;points=[[0,0.5],[1,0.5]];portConstraint=eastwest;top=0;left=0;right=0;bottom=1;" parent="muxyDqSTh95r2Ukf36ne-142" vertex="1">
          <mxGeometry y="30" width="350" height="30" as="geometry" />
        </mxCell>
        <mxCell id="muxyDqSTh95r2Ukf36ne-144" value="+" style="shape=partialRectangle;overflow=hidden;connectable=0;fillColor=none;top=0;left=0;bottom=0;right=0;fontStyle=1;" parent="muxyDqSTh95r2Ukf36ne-143" vertex="1">
          <mxGeometry width="30" height="30" as="geometry">
            <mxRectangle width="30" height="30" as="alternateBounds" />
          </mxGeometry>
        </mxCell>
        <mxCell id="muxyDqSTh95r2Ukf36ne-145" value="using Flags: unsigned int" style="shape=partialRectangle;overflow=hidden;connectable=0;fillColor=none;top=0;left=0;bottom=0;right=0;align=left;spacingLeft=6;fontStyle=5;" parent="muxyDqSTh95r2Ukf36ne-143" vertex="1">
          <mxGeometry x="30" width="320" height="30" as="geometry">
            <mxRectangle width="320" height="30" as="alternateBounds" />
          </mxGeometry>
        </mxCell>
        <mxCell id="muxyDqSTh95r2Ukf36ne-146" value="" style="shape=partialRectangle;collapsible=0;dropTarget=0;pointerEvents=0;fillColor=none;points=[[0,0.5],[1,0.5]];portConstraint=eastwest;top=0;left=0;right=0;bottom=0;" parent="muxyDqSTh95r2Ukf36ne-142" vertex="1">
          <mxGeometry y="60" width="350" height="30" as="geometry" />
        </mxCell>
        <mxCell id="muxyDqSTh95r2Ukf36ne-147" value="+" style="shape=partialRectangle;overflow=hidden;connectable=0;fillColor=none;top=0;left=0;bottom=0;right=0;" parent="muxyDqSTh95r2Ukf36ne-146" vertex="1">
          <mxGeometry width="30" height="30" as="geometry">
            <mxRectangle width="30" height="30" as="alternateBounds" />
          </mxGeometry>
        </mxCell>
        <mxCell id="muxyDqSTh95r2Ukf36ne-148" value="virtual ~IUnit()Â " style="shape=partialRectangle;overflow=hidden;connectable=0;fillColor=none;top=0;left=0;bottom=0;right=0;align=left;spacingLeft=6;" parent="muxyDqSTh95r2Ukf36ne-146" vertex="1">
          <mxGeometry x="30" width="320" height="30" as="geometry">
            <mxRectangle width="320" height="30" as="alternateBounds" />
          </mxGeometry>
        </mxCell>
        <mxCell id="muxyDqSTh95r2Ukf36ne-149" value="" style="shape=partialRectangle;collapsible=0;dropTarget=0;pointerEvents=0;fillColor=none;points=[[0,0.5],[1,0.5]];portConstraint=eastwest;top=0;left=0;right=0;bottom=0;" parent="muxyDqSTh95r2Ukf36ne-142" vertex="1">
          <mxGeometry y="90" width="350" height="30" as="geometry" />
        </mxCell>
        <mxCell id="muxyDqSTh95r2Ukf36ne-150" value="+" style="shape=partialRectangle;overflow=hidden;connectable=0;fillColor=none;top=0;left=0;bottom=0;right=0;" parent="muxyDqSTh95r2Ukf36ne-149" vertex="1">
          <mxGeometry width="30" height="30" as="geometry">
            <mxRectangle width="30" height="30" as="alternateBounds" />
          </mxGeometry>
        </mxCell>
        <mxCell id="muxyDqSTh95r2Ukf36ne-151" value="virtual add(const std::shared_ptr&lt;IUnit&gt;&amp;, Flags = 0): void" style="shape=partialRectangle;overflow=hidden;connectable=0;fillColor=none;top=0;left=0;bottom=0;right=0;align=left;spacingLeft=6;" parent="muxyDqSTh95r2Ukf36ne-149" vertex="1">
          <mxGeometry x="30" width="320" height="30" as="geometry">
            <mxRectangle width="320" height="30" as="alternateBounds" />
          </mxGeometry>
        </mxCell>
        <mxCell id="eJCRss2qb-E4OFzYuCk7-20" value="" style="shape=partialRectangle;collapsible=0;dropTarget=0;pointerEvents=0;fillColor=none;points=[[0,0.5],[1,0.5]];portConstraint=eastwest;top=0;left=0;right=0;bottom=0;" vertex="1" parent="muxyDqSTh95r2Ukf36ne-142">
          <mxGeometry y="120" width="350" height="30" as="geometry" />
        </mxCell>
        <mxCell id="eJCRss2qb-E4OFzYuCk7-21" value="+" style="shape=partialRectangle;overflow=hidden;connectable=0;fillColor=none;top=0;left=0;bottom=0;right=0;" vertex="1" parent="eJCRss2qb-E4OFzYuCk7-20">
          <mxGeometry width="30" height="30" as="geometry">
            <mxRectangle width="30" height="30" as="alternateBounds" />
          </mxGeometry>
        </mxCell>
        <mxCell id="eJCRss2qb-E4OFzYuCk7-22" value="virtual compile(unsigned int level = 0) const: string" style="shape=partialRectangle;overflow=hidden;connectable=0;fillColor=none;top=0;left=0;bottom=0;right=0;align=left;spacingLeft=6;" vertex="1" parent="eJCRss2qb-E4OFzYuCk7-20">
          <mxGeometry x="30" width="320" height="30" as="geometry">
            <mxRectangle width="320" height="30" as="alternateBounds" />
          </mxGeometry>
        </mxCell>
        <mxCell id="eJCRss2qb-E4OFzYuCk7-23" value="" style="shape=partialRectangle;collapsible=0;dropTarget=0;pointerEvents=0;fillColor=none;points=[[0,0.5],[1,0.5]];portConstraint=eastwest;top=0;left=0;right=0;bottom=0;" vertex="1" parent="muxyDqSTh95r2Ukf36ne-142">
          <mxGeometry y="150" width="350" height="30" as="geometry" />
        </mxCell>
        <mxCell id="eJCRss2qb-E4OFzYuCk7-24" value="#" style="shape=partialRectangle;overflow=hidden;connectable=0;fillColor=none;top=0;left=0;bottom=0;right=0;" vertex="1" parent="eJCRss2qb-E4OFzYuCk7-23">
          <mxGeometry width="30" height="30" as="geometry">
            <mxRectangle width="30" height="30" as="alternateBounds" />
          </mxGeometry>
        </mxCell>
        <mxCell id="eJCRss2qb-E4OFzYuCk7-25" value="virtual generateShift(unsigned int level) const: string" style="shape=partialRectangle;overflow=hidden;connectable=0;fillColor=none;top=0;left=0;bottom=0;right=0;align=left;spacingLeft=6;" vertex="1" parent="eJCRss2qb-E4OFzYuCk7-23">
          <mxGeometry x="30" width="320" height="30" as="geometry">
            <mxRectangle width="320" height="30" as="alternateBounds" />
          </mxGeometry>
        </mxCell>
        <mxCell id="muxyDqSTh95r2Ukf36ne-152" value="" style="endArrow=block;html=1;rounded=0;dashed=1;entryX=0;entryY=0.5;entryDx=0;entryDy=0;strokeWidth=3;endFill=0;endSize=12;" parent="1" edge="1">
          <mxGeometry width="50" height="50" relative="1" as="geometry">
            <mxPoint x="1080" y="180" as="sourcePoint" />
            <mxPoint x="1350" y="-15" as="targetPoint" />
          </mxGeometry>
        </mxCell>
        <mxCell id="muxyDqSTh95r2Ukf36ne-155" value="" style="endArrow=block;html=1;rounded=0;dashed=1;entryX=0;entryY=0.333;entryDx=0;entryDy=0;strokeWidth=3;endFill=0;endSize=12;entryPerimeter=0;" parent="1" target="eJCRss2qb-E4OFzYuCk7-93" edge="1">
          <mxGeometry width="50" height="50" relative="1" as="geometry">
            <mxPoint x="1080" y="670" as="sourcePoint" />
            <mxPoint x="1360" y="85" as="targetPoint" />
          </mxGeometry>
        </mxCell>
        <mxCell id="muxyDqSTh95r2Ukf36ne-156" value="" style="endArrow=block;html=1;rounded=0;dashed=1;entryX=0;entryY=0.5;entryDx=0;entryDy=0;strokeWidth=3;endFill=0;endSize=12;" parent="1" edge="1">
          <mxGeometry width="50" height="50" relative="1" as="geometry">
            <mxPoint x="1080" y="-310" as="sourcePoint" />
            <mxPoint x="1350" y="-35" as="targetPoint" />
          </mxGeometry>
        </mxCell>
        <mxCell id="muxyDqSTh95r2Ukf36ne-157" value="" style="endArrow=block;html=1;rounded=0;dashed=1;entryX=0;entryY=0.5;entryDx=0;entryDy=0;strokeWidth=3;endFill=0;endSize=12;" parent="1" target="muxyDqSTh95r2Ukf36ne-59" edge="1">
          <mxGeometry width="50" height="50" relative="1" as="geometry">
            <mxPoint x="1080" y="825" as="sourcePoint" />
            <mxPoint x="1260" y="210" as="targetPoint" />
          </mxGeometry>
        </mxCell>
        <mxCell id="muxyDqSTh95r2Ukf36ne-158" value="" style="endArrow=block;html=1;rounded=0;dashed=1;entryX=0;entryY=0.5;entryDx=0;entryDy=0;strokeWidth=3;endFill=0;endSize=12;" parent="1" target="muxyDqSTh95r2Ukf36ne-56" edge="1">
          <mxGeometry width="50" height="50" relative="1" as="geometry">
            <mxPoint x="1080" y="320" as="sourcePoint" />
            <mxPoint x="1260" y="-180" as="targetPoint" />
          </mxGeometry>
        </mxCell>
        <mxCell id="muxyDqSTh95r2Ukf36ne-159" value="" style="endArrow=block;html=1;rounded=0;dashed=1;entryX=0;entryY=0.5;entryDx=0;entryDy=0;strokeWidth=3;endFill=0;endSize=12;" parent="1" target="muxyDqSTh95r2Ukf36ne-53" edge="1">
          <mxGeometry width="50" height="50" relative="1" as="geometry">
            <mxPoint x="1080" y="-170" as="sourcePoint" />
            <mxPoint x="1260" y="-165" as="targetPoint" />
          </mxGeometry>
        </mxCell>
        <mxCell id="muxyDqSTh95r2Ukf36ne-160" value="" style="endArrow=block;html=1;rounded=0;dashed=1;strokeWidth=3;endFill=0;endSize=12;entryX=0;entryY=0.108;entryDx=0;entryDy=0;entryPerimeter=0;" parent="1" target="eJCRss2qb-E4OFzYuCk7-100" edge="1">
          <mxGeometry width="50" height="50" relative="1" as="geometry">
            <mxPoint x="1080" y="-40" as="sourcePoint" />
            <mxPoint x="1330" y="470" as="targetPoint" />
            <Array as="points">
              <mxPoint x="1310" y="470" />
            </Array>
          </mxGeometry>
        </mxCell>
        <mxCell id="muxyDqSTh95r2Ukf36ne-161" value="" style="endArrow=block;html=1;rounded=0;dashed=1;entryX=-0.013;entryY=0.015;entryDx=0;entryDy=0;strokeWidth=3;endFill=0;endSize=12;entryPerimeter=0;" parent="1" target="eJCRss2qb-E4OFzYuCk7-115" edge="1">
          <mxGeometry width="50" height="50" relative="1" as="geometry">
            <mxPoint x="1080" y="460" as="sourcePoint" />
            <mxPoint x="1350" y="655" as="targetPoint" />
          </mxGeometry>
        </mxCell>
        <mxCell id="muxyDqSTh95r2Ukf36ne-162" value="" style="endArrow=block;html=1;rounded=0;dashed=1;strokeWidth=3;endFill=0;endSize=12;entryX=0;entryY=0.5;entryDx=0;entryDy=0;" parent="1" target="eJCRss2qb-E4OFzYuCk7-115" edge="1">
          <mxGeometry width="50" height="50" relative="1" as="geometry">
            <mxPoint x="1080" y="950" as="sourcePoint" />
            <mxPoint x="1349.0100000000002" y="645.79" as="targetPoint" />
          </mxGeometry>
        </mxCell>
        <mxCell id="muxyDqSTh95r2Ukf36ne-163" value="" style="endArrow=block;html=1;rounded=0;dashed=1;entryX=1;entryY=0.5;entryDx=0;entryDy=0;exitX=-0.011;exitY=1.103;exitDx=0;exitDy=0;exitPerimeter=0;strokeWidth=3;endFill=0;endSize=12;" parent="1" source="C-vyLk0tnHw3VtMMgP7b-3" target="C-vyLk0tnHw3VtMMgP7b-27" edge="1">
          <mxGeometry width="50" height="50" relative="1" as="geometry">
            <mxPoint x="320" y="300" as="sourcePoint" />
            <mxPoint x="730" y="170" as="targetPoint" />
          </mxGeometry>
        </mxCell>
        <mxCell id="muxyDqSTh95r2Ukf36ne-164" value="" style="endArrow=block;html=1;rounded=0;dashed=1;entryX=1;entryY=0.5;entryDx=0;entryDy=0;exitX=0;exitY=0.5;exitDx=0;exitDy=0;strokeWidth=3;endFill=0;endSize=12;" parent="1" source="eJCRss2qb-E4OFzYuCk7-11" target="muxyDqSTh95r2Ukf36ne-180" edge="1">
          <mxGeometry width="50" height="50" relative="1" as="geometry">
            <mxPoint x="310" y="815" as="sourcePoint" />
            <mxPoint x="340" y="650" as="targetPoint" />
          </mxGeometry>
        </mxCell>
        <mxCell id="muxyDqSTh95r2Ukf36ne-165" value="" style="endArrow=block;html=1;rounded=0;dashed=1;entryX=1;entryY=0.25;entryDx=0;entryDy=0;exitX=0;exitY=0.5;exitDx=0;exitDy=0;strokeWidth=3;endFill=0;endSize=12;" parent="1" source="muxyDqSTh95r2Ukf36ne-208" target="C-vyLk0tnHw3VtMMgP7b-23" edge="1">
          <mxGeometry width="50" height="50" relative="1" as="geometry">
            <mxPoint x="305.75" y="-180" as="sourcePoint" />
            <mxPoint x="330" y="-140" as="targetPoint" />
          </mxGeometry>
        </mxCell>
        <mxCell id="muxyDqSTh95r2Ukf36ne-166" value="" style="endArrow=block;html=1;rounded=0;entryX=0.001;entryY=0.216;entryDx=0;entryDy=0;exitX=1.018;exitY=0.643;exitDx=0;exitDy=0;strokeWidth=3;endSize=12;endFill=0;entryPerimeter=0;exitPerimeter=0;" parent="1" source="muxyDqSTh95r2Ukf36ne-53" target="muxyDqSTh95r2Ukf36ne-149" edge="1">
          <mxGeometry width="50" height="50" relative="1" as="geometry">
            <mxPoint x="1610" y="305" as="sourcePoint" />
            <mxPoint x="1890" y="180" as="targetPoint" />
            <Array as="points" />
          </mxGeometry>
        </mxCell>
        <mxCell id="muxyDqSTh95r2Ukf36ne-168" value="" style="endArrow=open;dashed=1;html=1;exitX=1.007;exitY=0.103;exitDx=0;exitDy=0;entryX=-0.003;entryY=0.055;entryDx=0;entryDy=0;entryPerimeter=0;endFill=0;strokeWidth=3;rounded=0;endSize=12;shadow=0;exitPerimeter=0;" parent="1" source="C-vyLk0tnHw3VtMMgP7b-6" target="muxyDqSTh95r2Ukf36ne-86" edge="1">
          <mxGeometry width="50" height="50" relative="1" as="geometry">
            <mxPoint x="840" y="320" as="sourcePoint" />
            <mxPoint x="750" y="310" as="targetPoint" />
          </mxGeometry>
        </mxCell>
        <mxCell id="muxyDqSTh95r2Ukf36ne-172" value="" style="endArrow=open;dashed=1;html=1;exitX=1;exitY=0.5;exitDx=0;exitDy=0;entryX=0;entryY=0.5;entryDx=0;entryDy=0;endFill=0;strokeWidth=3;rounded=0;endSize=12;shadow=0;" parent="1" target="muxyDqSTh95r2Ukf36ne-126" edge="1" source="muxyDqSTh95r2Ukf36ne-186">
          <mxGeometry width="50" height="50" relative="1" as="geometry">
            <mxPoint x="564" y="345" as="sourcePoint" />
            <mxPoint x="830" y="250" as="targetPoint" />
          </mxGeometry>
        </mxCell>
        <mxCell id="muxyDqSTh95r2Ukf36ne-173" value="" style="endArrow=open;dashed=1;html=1;exitX=1.008;exitY=0.08;exitDx=0;exitDy=0;entryX=0;entryY=0.5;entryDx=0;entryDy=0;endFill=0;strokeWidth=3;rounded=0;endSize=12;shadow=0;exitPerimeter=0;" parent="1" edge="1" target="eJCRss2qb-E4OFzYuCk7-150" source="eJCRss2qb-E4OFzYuCk7-11">
          <mxGeometry width="50" height="50" relative="1" as="geometry">
            <mxPoint x="563" y="811" as="sourcePoint" />
            <mxPoint x="830" y="810" as="targetPoint" />
          </mxGeometry>
        </mxCell>
        <mxCell id="muxyDqSTh95r2Ukf36ne-174" value="" style="endArrow=open;dashed=1;html=1;exitX=1;exitY=0.5;exitDx=0;exitDy=0;entryX=0;entryY=0.5;entryDx=0;entryDy=0;endFill=0;strokeWidth=3;rounded=0;endSize=12;shadow=0;" parent="1" edge="1" source="eJCRss2qb-E4OFzYuCk7-14">
          <mxGeometry width="50" height="50" relative="1" as="geometry">
            <mxPoint x="564" y="840" as="sourcePoint" />
            <mxPoint x="830" y="960" as="targetPoint" />
          </mxGeometry>
        </mxCell>
        <mxCell id="muxyDqSTh95r2Ukf36ne-175" value="" style="endArrow=open;dashed=1;html=1;exitX=1;exitY=0.5;exitDx=0;exitDy=0;entryX=0;entryY=0.5;entryDx=0;entryDy=0;endFill=0;strokeWidth=3;rounded=0;endSize=12;shadow=0;" parent="1" edge="1" target="eJCRss2qb-E4OFzYuCk7-140">
          <mxGeometry width="50" height="50" relative="1" as="geometry">
            <mxPoint x="530" y="760" as="sourcePoint" />
            <mxPoint x="800" y="650" as="targetPoint" />
          </mxGeometry>
        </mxCell>
        <mxCell id="muxyDqSTh95r2Ukf36ne-176" value="" style="endArrow=open;dashed=1;html=1;exitX=1.009;exitY=-0.21;exitDx=0;exitDy=0;endFill=0;strokeWidth=3;rounded=0;endSize=12;shadow=0;exitPerimeter=0;" parent="1" edge="1" source="muxyDqSTh95r2Ukf36ne-205">
          <mxGeometry width="50" height="50" relative="1" as="geometry">
            <mxPoint x="560" y="-200" as="sourcePoint" />
            <mxPoint x="780" y="-320" as="targetPoint" />
          </mxGeometry>
        </mxCell>
        <mxCell id="muxyDqSTh95r2Ukf36ne-177" value="" style="endArrow=open;dashed=1;html=1;exitX=1.003;exitY=-0.035;exitDx=0;exitDy=0;entryX=-0.003;entryY=0.055;entryDx=0;entryDy=0;entryPerimeter=0;endFill=0;strokeWidth=3;rounded=0;endSize=12;shadow=0;exitPerimeter=0;" parent="1" edge="1" source="muxyDqSTh95r2Ukf36ne-211">
          <mxGeometry width="50" height="50" relative="1" as="geometry">
            <mxPoint x="563" y="-175.25" as="sourcePoint" />
            <mxPoint x="830" y="-176.25" as="targetPoint" />
          </mxGeometry>
        </mxCell>
        <mxCell id="muxyDqSTh95r2Ukf36ne-178" value="" style="endArrow=open;dashed=1;html=1;exitX=1.009;exitY=0.06;exitDx=0;exitDy=0;exitPerimeter=0;entryX=0;entryY=0.5;entryDx=0;entryDy=0;endFill=0;strokeWidth=3;rounded=0;endSize=12;shadow=0;" parent="1" edge="1" source="muxyDqSTh95r2Ukf36ne-214">
          <mxGeometry width="50" height="50" relative="1" as="geometry">
            <mxPoint x="560" y="-150" as="sourcePoint" />
            <mxPoint x="826" y="-30" as="targetPoint" />
          </mxGeometry>
        </mxCell>
        <mxCell id="muxyDqSTh95r2Ukf36ne-179" value="" style="endArrow=open;dashed=1;html=1;exitX=1.01;exitY=-0.171;exitDx=0;exitDy=0;entryX=0;entryY=0.5;entryDx=0;entryDy=0;endFill=0;strokeWidth=3;rounded=0;endSize=12;shadow=0;exitPerimeter=0;" parent="1" edge="1" target="C-vyLk0tnHw3VtMMgP7b-17" source="C-vyLk0tnHw3VtMMgP7b-3">
          <mxGeometry width="50" height="50" relative="1" as="geometry">
            <mxPoint x="560" y="280" as="sourcePoint" />
            <mxPoint x="830" y="170" as="targetPoint" />
          </mxGeometry>
        </mxCell>
        <mxCell id="muxyDqSTh95r2Ukf36ne-201" value="JavaFactory" style="shape=table;startSize=30;container=1;collapsible=1;childLayout=tableLayout;fixedRows=1;rowLines=0;fontStyle=1;align=center;resizeLast=1;" parent="1" vertex="1">
          <mxGeometry y="-285" width="530" height="220" as="geometry" />
        </mxCell>
        <mxCell id="muxyDqSTh95r2Ukf36ne-202" value="" style="shape=partialRectangle;collapsible=0;dropTarget=0;pointerEvents=0;fillColor=none;points=[[0,0.5],[1,0.5]];portConstraint=eastwest;top=0;left=0;right=0;bottom=1;" parent="muxyDqSTh95r2Ukf36ne-201" vertex="1">
          <mxGeometry y="30" width="530" height="30" as="geometry" />
        </mxCell>
        <mxCell id="muxyDqSTh95r2Ukf36ne-203" value="" style="shape=partialRectangle;overflow=hidden;connectable=0;fillColor=none;top=0;left=0;bottom=0;right=0;fontStyle=1;" parent="muxyDqSTh95r2Ukf36ne-202" vertex="1">
          <mxGeometry width="30" height="30" as="geometry">
            <mxRectangle width="30" height="30" as="alternateBounds" />
          </mxGeometry>
        </mxCell>
        <mxCell id="muxyDqSTh95r2Ukf36ne-204" value="" style="shape=partialRectangle;overflow=hidden;connectable=0;fillColor=none;top=0;left=0;bottom=0;right=0;align=left;spacingLeft=6;fontStyle=5;" parent="muxyDqSTh95r2Ukf36ne-202" vertex="1">
          <mxGeometry x="30" width="500" height="30" as="geometry">
            <mxRectangle width="500" height="30" as="alternateBounds" />
          </mxGeometry>
        </mxCell>
        <mxCell id="muxyDqSTh95r2Ukf36ne-205" value="" style="shape=partialRectangle;collapsible=0;dropTarget=0;pointerEvents=0;fillColor=none;points=[[0,0.5],[1,0.5]];portConstraint=eastwest;top=0;left=0;right=0;bottom=0;" parent="muxyDqSTh95r2Ukf36ne-201" vertex="1">
          <mxGeometry y="60" width="530" height="20" as="geometry" />
        </mxCell>
        <mxCell id="muxyDqSTh95r2Ukf36ne-206" value="+" style="shape=partialRectangle;overflow=hidden;connectable=0;fillColor=none;top=0;left=0;bottom=0;right=0;" parent="muxyDqSTh95r2Ukf36ne-205" vertex="1">
          <mxGeometry width="30" height="20" as="geometry">
            <mxRectangle width="30" height="20" as="alternateBounds" />
          </mxGeometry>
        </mxCell>
        <mxCell id="muxyDqSTh95r2Ukf36ne-207" value="JavaFactory()" style="shape=partialRectangle;overflow=hidden;connectable=0;fillColor=none;top=0;left=0;bottom=0;right=0;align=left;spacingLeft=6;" parent="muxyDqSTh95r2Ukf36ne-205" vertex="1">
          <mxGeometry x="30" width="500" height="20" as="geometry">
            <mxRectangle width="500" height="20" as="alternateBounds" />
          </mxGeometry>
        </mxCell>
        <mxCell id="muxyDqSTh95r2Ukf36ne-208" value="" style="shape=partialRectangle;collapsible=0;dropTarget=0;pointerEvents=0;fillColor=none;points=[[0,0.5],[1,0.5]];portConstraint=eastwest;top=0;left=0;right=0;bottom=0;" parent="muxyDqSTh95r2Ukf36ne-201" vertex="1">
          <mxGeometry y="80" width="530" height="30" as="geometry" />
        </mxCell>
        <mxCell id="muxyDqSTh95r2Ukf36ne-209" value="+" style="shape=partialRectangle;overflow=hidden;connectable=0;fillColor=none;top=0;left=0;bottom=0;right=0;" parent="muxyDqSTh95r2Ukf36ne-208" vertex="1">
          <mxGeometry width="30" height="30" as="geometry">
            <mxRectangle width="30" height="30" as="alternateBounds" />
          </mxGeometry>
        </mxCell>
        <mxCell id="muxyDqSTh95r2Ukf36ne-210" value="~JavaFactory()" style="shape=partialRectangle;overflow=hidden;connectable=0;fillColor=none;top=0;left=0;bottom=0;right=0;align=left;spacingLeft=6;" parent="muxyDqSTh95r2Ukf36ne-208" vertex="1">
          <mxGeometry x="30" width="500" height="30" as="geometry">
            <mxRectangle width="500" height="30" as="alternateBounds" />
          </mxGeometry>
        </mxCell>
        <mxCell id="muxyDqSTh95r2Ukf36ne-211" value="" style="shape=partialRectangle;collapsible=0;dropTarget=0;pointerEvents=0;fillColor=none;points=[[0,0.5],[1,0.5]];portConstraint=eastwest;top=0;left=0;right=0;bottom=0;" parent="muxyDqSTh95r2Ukf36ne-201" vertex="1">
          <mxGeometry y="110" width="530" height="40" as="geometry" />
        </mxCell>
        <mxCell id="muxyDqSTh95r2Ukf36ne-212" value="+" style="shape=partialRectangle;overflow=hidden;connectable=0;fillColor=none;top=0;left=0;bottom=0;right=0;" parent="muxyDqSTh95r2Ukf36ne-211" vertex="1">
          <mxGeometry width="30" height="40" as="geometry">
            <mxRectangle width="30" height="40" as="alternateBounds" />
          </mxGeometry>
        </mxCell>
        <mxCell id="muxyDqSTh95r2Ukf36ne-213" value="createClass(const string&amp; name):Â shared_ptr&lt;IUnit&gt;" style="shape=partialRectangle;overflow=hidden;connectable=0;fillColor=none;top=0;left=0;bottom=0;right=0;align=left;spacingLeft=6;" parent="muxyDqSTh95r2Ukf36ne-211" vertex="1">
          <mxGeometry x="30" width="500" height="40" as="geometry">
            <mxRectangle width="500" height="40" as="alternateBounds" />
          </mxGeometry>
        </mxCell>
        <mxCell id="muxyDqSTh95r2Ukf36ne-214" value="" style="shape=partialRectangle;collapsible=0;dropTarget=0;pointerEvents=0;fillColor=none;points=[[0,0.5],[1,0.5]];portConstraint=eastwest;top=0;left=0;right=0;bottom=0;" parent="muxyDqSTh95r2Ukf36ne-201" vertex="1">
          <mxGeometry y="150" width="530" height="30" as="geometry" />
        </mxCell>
        <mxCell id="muxyDqSTh95r2Ukf36ne-215" value="+" style="shape=partialRectangle;overflow=hidden;connectable=0;fillColor=none;top=0;left=0;bottom=0;right=0;" parent="muxyDqSTh95r2Ukf36ne-214" vertex="1">
          <mxGeometry width="30" height="30" as="geometry">
            <mxRectangle width="30" height="30" as="alternateBounds" />
          </mxGeometry>
        </mxCell>
        <mxCell id="muxyDqSTh95r2Ukf36ne-216" value="createMethod(const string&amp; name, const string&amp; returnType, Flags flags): shared_ptr&lt;IUnit&gt;" style="shape=partialRectangle;overflow=hidden;connectable=0;fillColor=none;top=0;left=0;bottom=0;right=0;align=left;spacingLeft=6;" parent="muxyDqSTh95r2Ukf36ne-214" vertex="1">
          <mxGeometry x="30" width="500" height="30" as="geometry">
            <mxRectangle width="500" height="30" as="alternateBounds" />
          </mxGeometry>
        </mxCell>
        <mxCell id="muxyDqSTh95r2Ukf36ne-217" value="" style="shape=partialRectangle;collapsible=0;dropTarget=0;pointerEvents=0;fillColor=none;points=[[0,0.5],[1,0.5]];portConstraint=eastwest;top=0;left=0;right=0;bottom=0;" parent="muxyDqSTh95r2Ukf36ne-201" vertex="1">
          <mxGeometry y="180" width="530" height="30" as="geometry" />
        </mxCell>
        <mxCell id="muxyDqSTh95r2Ukf36ne-218" value="+" style="shape=partialRectangle;overflow=hidden;connectable=0;fillColor=none;top=0;left=0;bottom=0;right=0;" parent="muxyDqSTh95r2Ukf36ne-217" vertex="1">
          <mxGeometry width="30" height="30" as="geometry">
            <mxRectangle width="30" height="30" as="alternateBounds" />
          </mxGeometry>
        </mxCell>
        <mxCell id="muxyDqSTh95r2Ukf36ne-219" value="createPrintOperator(const std::string&amp; text): shared_ptr&lt;IUnit&gt;" style="shape=partialRectangle;overflow=hidden;connectable=0;fillColor=none;top=0;left=0;bottom=0;right=0;align=left;spacingLeft=6;" parent="muxyDqSTh95r2Ukf36ne-217" vertex="1">
          <mxGeometry x="30" width="500" height="30" as="geometry">
            <mxRectangle width="500" height="30" as="alternateBounds" />
          </mxGeometry>
        </mxCell>
        <mxCell id="eJCRss2qb-E4OFzYuCk7-1" value="CsharpFactory" style="shape=table;startSize=30;container=1;collapsible=1;childLayout=tableLayout;fixedRows=1;rowLines=0;fontStyle=1;align=center;resizeLast=1;" vertex="1" parent="1">
          <mxGeometry y="695" width="530" height="220" as="geometry" />
        </mxCell>
        <mxCell id="eJCRss2qb-E4OFzYuCk7-2" value="" style="shape=partialRectangle;collapsible=0;dropTarget=0;pointerEvents=0;fillColor=none;points=[[0,0.5],[1,0.5]];portConstraint=eastwest;top=0;left=0;right=0;bottom=1;" vertex="1" parent="eJCRss2qb-E4OFzYuCk7-1">
          <mxGeometry y="30" width="530" height="30" as="geometry" />
        </mxCell>
        <mxCell id="eJCRss2qb-E4OFzYuCk7-3" value="" style="shape=partialRectangle;overflow=hidden;connectable=0;fillColor=none;top=0;left=0;bottom=0;right=0;fontStyle=1;" vertex="1" parent="eJCRss2qb-E4OFzYuCk7-2">
          <mxGeometry width="30" height="30" as="geometry">
            <mxRectangle width="30" height="30" as="alternateBounds" />
          </mxGeometry>
        </mxCell>
        <mxCell id="eJCRss2qb-E4OFzYuCk7-4" value="" style="shape=partialRectangle;overflow=hidden;connectable=0;fillColor=none;top=0;left=0;bottom=0;right=0;align=left;spacingLeft=6;fontStyle=5;" vertex="1" parent="eJCRss2qb-E4OFzYuCk7-2">
          <mxGeometry x="30" width="500" height="30" as="geometry">
            <mxRectangle width="500" height="30" as="alternateBounds" />
          </mxGeometry>
        </mxCell>
        <mxCell id="eJCRss2qb-E4OFzYuCk7-5" value="" style="shape=partialRectangle;collapsible=0;dropTarget=0;pointerEvents=0;fillColor=none;points=[[0,0.5],[1,0.5]];portConstraint=eastwest;top=0;left=0;right=0;bottom=0;" vertex="1" parent="eJCRss2qb-E4OFzYuCk7-1">
          <mxGeometry y="60" width="530" height="20" as="geometry" />
        </mxCell>
        <mxCell id="eJCRss2qb-E4OFzYuCk7-6" value="+" style="shape=partialRectangle;overflow=hidden;connectable=0;fillColor=none;top=0;left=0;bottom=0;right=0;" vertex="1" parent="eJCRss2qb-E4OFzYuCk7-5">
          <mxGeometry width="30" height="20" as="geometry">
            <mxRectangle width="30" height="20" as="alternateBounds" />
          </mxGeometry>
        </mxCell>
        <mxCell id="eJCRss2qb-E4OFzYuCk7-7" value="CsharpFactory()" style="shape=partialRectangle;overflow=hidden;connectable=0;fillColor=none;top=0;left=0;bottom=0;right=0;align=left;spacingLeft=6;" vertex="1" parent="eJCRss2qb-E4OFzYuCk7-5">
          <mxGeometry x="30" width="500" height="20" as="geometry">
            <mxRectangle width="500" height="20" as="alternateBounds" />
          </mxGeometry>
        </mxCell>
        <mxCell id="eJCRss2qb-E4OFzYuCk7-8" value="" style="shape=partialRectangle;collapsible=0;dropTarget=0;pointerEvents=0;fillColor=none;points=[[0,0.5],[1,0.5]];portConstraint=eastwest;top=0;left=0;right=0;bottom=0;" vertex="1" parent="eJCRss2qb-E4OFzYuCk7-1">
          <mxGeometry y="80" width="530" height="30" as="geometry" />
        </mxCell>
        <mxCell id="eJCRss2qb-E4OFzYuCk7-9" value="+" style="shape=partialRectangle;overflow=hidden;connectable=0;fillColor=none;top=0;left=0;bottom=0;right=0;" vertex="1" parent="eJCRss2qb-E4OFzYuCk7-8">
          <mxGeometry width="30" height="30" as="geometry">
            <mxRectangle width="30" height="30" as="alternateBounds" />
          </mxGeometry>
        </mxCell>
        <mxCell id="eJCRss2qb-E4OFzYuCk7-10" value="~CsharpFactory()" style="shape=partialRectangle;overflow=hidden;connectable=0;fillColor=none;top=0;left=0;bottom=0;right=0;align=left;spacingLeft=6;" vertex="1" parent="eJCRss2qb-E4OFzYuCk7-8">
          <mxGeometry x="30" width="500" height="30" as="geometry">
            <mxRectangle width="500" height="30" as="alternateBounds" />
          </mxGeometry>
        </mxCell>
        <mxCell id="eJCRss2qb-E4OFzYuCk7-11" value="" style="shape=partialRectangle;collapsible=0;dropTarget=0;pointerEvents=0;fillColor=none;points=[[0,0.5],[1,0.5]];portConstraint=eastwest;top=0;left=0;right=0;bottom=0;" vertex="1" parent="eJCRss2qb-E4OFzYuCk7-1">
          <mxGeometry y="110" width="530" height="40" as="geometry" />
        </mxCell>
        <mxCell id="eJCRss2qb-E4OFzYuCk7-12" value="+" style="shape=partialRectangle;overflow=hidden;connectable=0;fillColor=none;top=0;left=0;bottom=0;right=0;" vertex="1" parent="eJCRss2qb-E4OFzYuCk7-11">
          <mxGeometry width="30" height="40" as="geometry">
            <mxRectangle width="30" height="40" as="alternateBounds" />
          </mxGeometry>
        </mxCell>
        <mxCell id="eJCRss2qb-E4OFzYuCk7-13" value="createClass(const string&amp; name):Â shared_ptr&lt;IUnit&gt;" style="shape=partialRectangle;overflow=hidden;connectable=0;fillColor=none;top=0;left=0;bottom=0;right=0;align=left;spacingLeft=6;" vertex="1" parent="eJCRss2qb-E4OFzYuCk7-11">
          <mxGeometry x="30" width="500" height="40" as="geometry">
            <mxRectangle width="500" height="40" as="alternateBounds" />
          </mxGeometry>
        </mxCell>
        <mxCell id="eJCRss2qb-E4OFzYuCk7-14" value="" style="shape=partialRectangle;collapsible=0;dropTarget=0;pointerEvents=0;fillColor=none;points=[[0,0.5],[1,0.5]];portConstraint=eastwest;top=0;left=0;right=0;bottom=0;" vertex="1" parent="eJCRss2qb-E4OFzYuCk7-1">
          <mxGeometry y="150" width="530" height="30" as="geometry" />
        </mxCell>
        <mxCell id="eJCRss2qb-E4OFzYuCk7-15" value="+" style="shape=partialRectangle;overflow=hidden;connectable=0;fillColor=none;top=0;left=0;bottom=0;right=0;" vertex="1" parent="eJCRss2qb-E4OFzYuCk7-14">
          <mxGeometry width="30" height="30" as="geometry">
            <mxRectangle width="30" height="30" as="alternateBounds" />
          </mxGeometry>
        </mxCell>
        <mxCell id="eJCRss2qb-E4OFzYuCk7-16" value="createMethod(const string&amp; name, const string&amp; returnType, Flags flags): shared_ptr&lt;IUnit&gt;" style="shape=partialRectangle;overflow=hidden;connectable=0;fillColor=none;top=0;left=0;bottom=0;right=0;align=left;spacingLeft=6;" vertex="1" parent="eJCRss2qb-E4OFzYuCk7-14">
          <mxGeometry x="30" width="500" height="30" as="geometry">
            <mxRectangle width="500" height="30" as="alternateBounds" />
          </mxGeometry>
        </mxCell>
        <mxCell id="eJCRss2qb-E4OFzYuCk7-17" value="" style="shape=partialRectangle;collapsible=0;dropTarget=0;pointerEvents=0;fillColor=none;points=[[0,0.5],[1,0.5]];portConstraint=eastwest;top=0;left=0;right=0;bottom=0;" vertex="1" parent="eJCRss2qb-E4OFzYuCk7-1">
          <mxGeometry y="180" width="530" height="30" as="geometry" />
        </mxCell>
        <mxCell id="eJCRss2qb-E4OFzYuCk7-18" value="+" style="shape=partialRectangle;overflow=hidden;connectable=0;fillColor=none;top=0;left=0;bottom=0;right=0;" vertex="1" parent="eJCRss2qb-E4OFzYuCk7-17">
          <mxGeometry width="30" height="30" as="geometry">
            <mxRectangle width="30" height="30" as="alternateBounds" />
          </mxGeometry>
        </mxCell>
        <mxCell id="eJCRss2qb-E4OFzYuCk7-19" value="createPrintOperator(const std::string&amp; text): shared_ptr&lt;IUnit&gt;" style="shape=partialRectangle;overflow=hidden;connectable=0;fillColor=none;top=0;left=0;bottom=0;right=0;align=left;spacingLeft=6;" vertex="1" parent="eJCRss2qb-E4OFzYuCk7-17">
          <mxGeometry x="30" width="500" height="30" as="geometry">
            <mxRectangle width="500" height="30" as="alternateBounds" />
          </mxGeometry>
        </mxCell>
        <mxCell id="eJCRss2qb-E4OFzYuCk7-80" value="IClassUnit" style="shape=table;startSize=30;container=1;collapsible=1;childLayout=tableLayout;fixedRows=1;rowLines=0;fontStyle=1;align=center;resizeLast=1;" vertex="1" parent="1">
          <mxGeometry x="1350" y="-140" width="330" height="250" as="geometry" />
        </mxCell>
        <mxCell id="eJCRss2qb-E4OFzYuCk7-81" value="" style="shape=partialRectangle;collapsible=0;dropTarget=0;pointerEvents=0;fillColor=none;points=[[0,0.5],[1,0.5]];portConstraint=eastwest;top=0;left=0;right=0;bottom=1;" vertex="1" parent="eJCRss2qb-E4OFzYuCk7-80">
          <mxGeometry y="30" width="330" height="150" as="geometry" />
        </mxCell>
        <mxCell id="eJCRss2qb-E4OFzYuCk7-82" value="+&#xa;&#xa;+&#xa;&#xa;#&#xa;&#xa;#&#xa;&#xa;#" style="shape=partialRectangle;overflow=hidden;connectable=0;fillColor=none;top=0;left=0;bottom=0;right=0;fontStyle=1;" vertex="1" parent="eJCRss2qb-E4OFzYuCk7-81">
          <mxGeometry width="30" height="150" as="geometry">
            <mxRectangle width="30" height="150" as="alternateBounds" />
          </mxGeometry>
        </mxCell>
        <mxCell id="eJCRss2qb-E4OFzYuCk7-83" value="AccessModifier: enum&#xa;&#xa;static ACCESS_MODIFIERS: const vector&lt;string&gt;&#xa;&#xa;using Fields: vector&lt;shared_ptr&lt;IUnit&gt;&gt;&#xa;&#xa;m_fields: vector&lt; Fields &gt;&#xa;&#xa;m_className: stringÂ " style="shape=partialRectangle;overflow=hidden;connectable=0;fillColor=none;top=0;left=0;bottom=0;right=0;align=left;spacingLeft=6;fontStyle=5;" vertex="1" parent="eJCRss2qb-E4OFzYuCk7-81">
          <mxGeometry x="30" width="300" height="150" as="geometry">
            <mxRectangle width="300" height="150" as="alternateBounds" />
          </mxGeometry>
        </mxCell>
        <mxCell id="eJCRss2qb-E4OFzYuCk7-93" value="" style="shape=partialRectangle;collapsible=0;dropTarget=0;pointerEvents=0;fillColor=none;points=[[0,0.5],[1,0.5]];portConstraint=eastwest;top=0;left=0;right=0;bottom=0;" vertex="1" parent="eJCRss2qb-E4OFzYuCk7-80">
          <mxGeometry y="180" width="330" height="30" as="geometry" />
        </mxCell>
        <mxCell id="eJCRss2qb-E4OFzYuCk7-94" value="#" style="shape=partialRectangle;overflow=hidden;connectable=0;fillColor=none;top=0;left=0;bottom=0;right=0;" vertex="1" parent="eJCRss2qb-E4OFzYuCk7-93">
          <mxGeometry width="30" height="30" as="geometry">
            <mxRectangle width="30" height="30" as="alternateBounds" />
          </mxGeometry>
        </mxCell>
        <mxCell id="eJCRss2qb-E4OFzYuCk7-95" value="virtual add(const std::shared_ptr&lt;IUnit&gt;&amp;, Flags): void" style="shape=partialRectangle;overflow=hidden;connectable=0;fillColor=none;top=0;left=0;bottom=0;right=0;align=left;spacingLeft=6;" vertex="1" parent="eJCRss2qb-E4OFzYuCk7-93">
          <mxGeometry x="30" width="300" height="30" as="geometry">
            <mxRectangle width="300" height="30" as="alternateBounds" />
          </mxGeometry>
        </mxCell>
        <mxCell id="eJCRss2qb-E4OFzYuCk7-96" value="" style="shape=partialRectangle;collapsible=0;dropTarget=0;pointerEvents=0;fillColor=none;points=[[0,0.5],[1,0.5]];portConstraint=eastwest;top=0;left=0;right=0;bottom=0;" vertex="1" parent="eJCRss2qb-E4OFzYuCk7-80">
          <mxGeometry y="210" width="330" height="30" as="geometry" />
        </mxCell>
        <mxCell id="eJCRss2qb-E4OFzYuCk7-97" value="#" style="shape=partialRectangle;overflow=hidden;connectable=0;fillColor=none;top=0;left=0;bottom=0;right=0;" vertex="1" parent="eJCRss2qb-E4OFzYuCk7-96">
          <mxGeometry width="30" height="30" as="geometry">
            <mxRectangle width="30" height="30" as="alternateBounds" />
          </mxGeometry>
        </mxCell>
        <mxCell id="eJCRss2qb-E4OFzYuCk7-98" value="virtual compile(unsigned int level = 0) const: string" style="shape=partialRectangle;overflow=hidden;connectable=0;fillColor=none;top=0;left=0;bottom=0;right=0;align=left;spacingLeft=6;" vertex="1" parent="eJCRss2qb-E4OFzYuCk7-96">
          <mxGeometry x="30" width="300" height="30" as="geometry">
            <mxRectangle width="300" height="30" as="alternateBounds" />
          </mxGeometry>
        </mxCell>
        <mxCell id="eJCRss2qb-E4OFzYuCk7-99" value="IPrintOperatorUnit" style="shape=table;startSize=30;container=1;collapsible=1;childLayout=tableLayout;fixedRows=1;rowLines=0;fontStyle=1;align=center;resizeLast=1;" vertex="1" parent="1">
          <mxGeometry x="1350" y="520" width="330" height="110" as="geometry" />
        </mxCell>
        <mxCell id="eJCRss2qb-E4OFzYuCk7-100" value="" style="shape=partialRectangle;collapsible=0;dropTarget=0;pointerEvents=0;fillColor=none;points=[[0,0.5],[1,0.5]];portConstraint=eastwest;top=0;left=0;right=0;bottom=1;" vertex="1" parent="eJCRss2qb-E4OFzYuCk7-99">
          <mxGeometry y="30" width="330" height="40" as="geometry" />
        </mxCell>
        <mxCell id="eJCRss2qb-E4OFzYuCk7-101" value="#" style="shape=partialRectangle;overflow=hidden;connectable=0;fillColor=none;top=0;left=0;bottom=0;right=0;fontStyle=1;" vertex="1" parent="eJCRss2qb-E4OFzYuCk7-100">
          <mxGeometry width="30" height="40" as="geometry">
            <mxRectangle width="30" height="40" as="alternateBounds" />
          </mxGeometry>
        </mxCell>
        <mxCell id="eJCRss2qb-E4OFzYuCk7-102" value="m_text: stringÂ " style="shape=partialRectangle;overflow=hidden;connectable=0;fillColor=none;top=0;left=0;bottom=0;right=0;align=left;spacingLeft=6;fontStyle=5;" vertex="1" parent="eJCRss2qb-E4OFzYuCk7-100">
          <mxGeometry x="30" width="300" height="40" as="geometry">
            <mxRectangle width="300" height="40" as="alternateBounds" />
          </mxGeometry>
        </mxCell>
        <mxCell id="eJCRss2qb-E4OFzYuCk7-115" value="" style="shape=partialRectangle;collapsible=0;dropTarget=0;pointerEvents=0;fillColor=none;points=[[0,0.5],[1,0.5]];portConstraint=eastwest;top=0;left=0;right=0;bottom=0;" vertex="1" parent="eJCRss2qb-E4OFzYuCk7-99">
          <mxGeometry y="70" width="330" height="40" as="geometry" />
        </mxCell>
        <mxCell id="eJCRss2qb-E4OFzYuCk7-116" value="+" style="shape=partialRectangle;overflow=hidden;connectable=0;fillColor=none;top=0;left=0;bottom=0;right=0;" vertex="1" parent="eJCRss2qb-E4OFzYuCk7-115">
          <mxGeometry width="30" height="40" as="geometry">
            <mxRectangle width="30" height="40" as="alternateBounds" />
          </mxGeometry>
        </mxCell>
        <mxCell id="eJCRss2qb-E4OFzYuCk7-117" value="virtual compile(unsigned int level = 0) const: string" style="shape=partialRectangle;overflow=hidden;connectable=0;fillColor=none;top=0;left=0;bottom=0;right=0;align=left;spacingLeft=6;" vertex="1" parent="eJCRss2qb-E4OFzYuCk7-115">
          <mxGeometry x="30" width="300" height="40" as="geometry">
            <mxRectangle width="300" height="40" as="alternateBounds" />
          </mxGeometry>
        </mxCell>
        <mxCell id="eJCRss2qb-E4OFzYuCk7-118" value="" style="endArrow=block;html=1;rounded=0;entryX=0;entryY=0.5;entryDx=0;entryDy=0;exitX=1;exitY=0.5;exitDx=0;exitDy=0;strokeWidth=3;endSize=12;endFill=0;" edge="1" parent="1" source="eJCRss2qb-E4OFzYuCk7-100" target="eJCRss2qb-E4OFzYuCk7-20">
          <mxGeometry width="50" height="50" relative="1" as="geometry">
            <mxPoint x="1680" y="644.3299999999999" as="sourcePoint" />
            <mxPoint x="1850" y="644.3299999999999" as="targetPoint" />
          </mxGeometry>
        </mxCell>
        <mxCell id="eJCRss2qb-E4OFzYuCk7-119" value="" style="endArrow=block;html=1;rounded=0;strokeWidth=3;endSize=12;endFill=0;entryX=0;entryY=0.5;entryDx=0;entryDy=0;" edge="1" parent="1" target="muxyDqSTh95r2Ukf36ne-143">
          <mxGeometry width="50" height="50" relative="1" as="geometry">
            <mxPoint x="1680" y="-20" as="sourcePoint" />
            <mxPoint x="1890" y="210" as="targetPoint" />
          </mxGeometry>
        </mxCell>
        <mxCell id="eJCRss2qb-E4OFzYuCk7-126" value="JavaClassUnit" style="shape=table;startSize=30;container=1;collapsible=1;childLayout=tableLayout;fixedRows=1;rowLines=0;fontStyle=1;align=center;resizeLast=1;" vertex="1" parent="1">
          <mxGeometry x="780" y="-390" width="300" height="130" as="geometry" />
        </mxCell>
        <mxCell id="eJCRss2qb-E4OFzYuCk7-127" value="" style="shape=partialRectangle;collapsible=0;dropTarget=0;pointerEvents=0;fillColor=none;points=[[0,0.5],[1,0.5]];portConstraint=eastwest;top=0;left=0;right=0;bottom=1;" vertex="1" parent="eJCRss2qb-E4OFzYuCk7-126">
          <mxGeometry y="30" width="300" height="30" as="geometry" />
        </mxCell>
        <mxCell id="eJCRss2qb-E4OFzYuCk7-128" value="+" style="shape=partialRectangle;overflow=hidden;connectable=0;fillColor=none;top=0;left=0;bottom=0;right=0;fontStyle=1;" vertex="1" parent="eJCRss2qb-E4OFzYuCk7-127">
          <mxGeometry width="30" height="30" as="geometry">
            <mxRectangle width="30" height="30" as="alternateBounds" />
          </mxGeometry>
        </mxCell>
        <mxCell id="eJCRss2qb-E4OFzYuCk7-129" value="JavaClassUnit(const std::string&amp; name " style="shape=partialRectangle;overflow=hidden;connectable=0;fillColor=none;top=0;left=0;bottom=0;right=0;align=left;spacingLeft=6;fontStyle=5;" vertex="1" parent="eJCRss2qb-E4OFzYuCk7-127">
          <mxGeometry x="30" width="270" height="30" as="geometry">
            <mxRectangle width="270" height="30" as="alternateBounds" />
          </mxGeometry>
        </mxCell>
        <mxCell id="eJCRss2qb-E4OFzYuCk7-130" value="" style="shape=partialRectangle;collapsible=0;dropTarget=0;pointerEvents=0;fillColor=none;points=[[0,0.5],[1,0.5]];portConstraint=eastwest;top=0;left=0;right=0;bottom=0;" vertex="1" parent="eJCRss2qb-E4OFzYuCk7-126">
          <mxGeometry y="60" width="300" height="30" as="geometry" />
        </mxCell>
        <mxCell id="eJCRss2qb-E4OFzYuCk7-131" value="+" style="shape=partialRectangle;overflow=hidden;connectable=0;fillColor=none;top=0;left=0;bottom=0;right=0;" vertex="1" parent="eJCRss2qb-E4OFzYuCk7-130">
          <mxGeometry width="30" height="30" as="geometry">
            <mxRectangle width="30" height="30" as="alternateBounds" />
          </mxGeometry>
        </mxCell>
        <mxCell id="eJCRss2qb-E4OFzYuCk7-132" value="add(const std::shared_ptr&lt;IUnit&gt;&amp;, Flags): void" style="shape=partialRectangle;overflow=hidden;connectable=0;fillColor=none;top=0;left=0;bottom=0;right=0;align=left;spacingLeft=6;" vertex="1" parent="eJCRss2qb-E4OFzYuCk7-130">
          <mxGeometry x="30" width="270" height="30" as="geometry">
            <mxRectangle width="270" height="30" as="alternateBounds" />
          </mxGeometry>
        </mxCell>
        <mxCell id="eJCRss2qb-E4OFzYuCk7-133" value="" style="shape=partialRectangle;collapsible=0;dropTarget=0;pointerEvents=0;fillColor=none;points=[[0,0.5],[1,0.5]];portConstraint=eastwest;top=0;left=0;right=0;bottom=0;" vertex="1" parent="eJCRss2qb-E4OFzYuCk7-126">
          <mxGeometry y="90" width="300" height="30" as="geometry" />
        </mxCell>
        <mxCell id="eJCRss2qb-E4OFzYuCk7-134" value="+" style="shape=partialRectangle;overflow=hidden;connectable=0;fillColor=none;top=0;left=0;bottom=0;right=0;" vertex="1" parent="eJCRss2qb-E4OFzYuCk7-133">
          <mxGeometry width="30" height="30" as="geometry">
            <mxRectangle width="30" height="30" as="alternateBounds" />
          </mxGeometry>
        </mxCell>
        <mxCell id="eJCRss2qb-E4OFzYuCk7-135" value="compile(unsigned int level = 0) const: string" style="shape=partialRectangle;overflow=hidden;connectable=0;fillColor=none;top=0;left=0;bottom=0;right=0;align=left;spacingLeft=6;" vertex="1" parent="eJCRss2qb-E4OFzYuCk7-133">
          <mxGeometry x="30" width="270" height="30" as="geometry">
            <mxRectangle width="270" height="30" as="alternateBounds" />
          </mxGeometry>
        </mxCell>
        <mxCell id="eJCRss2qb-E4OFzYuCk7-136" value="CsharpClassUnit" style="shape=table;startSize=30;container=1;collapsible=1;childLayout=tableLayout;fixedRows=1;rowLines=0;fontStyle=1;align=center;resizeLast=1;" vertex="1" parent="1">
          <mxGeometry x="780" y="600" width="300" height="130" as="geometry" />
        </mxCell>
        <mxCell id="eJCRss2qb-E4OFzYuCk7-137" value="" style="shape=partialRectangle;collapsible=0;dropTarget=0;pointerEvents=0;fillColor=none;points=[[0,0.5],[1,0.5]];portConstraint=eastwest;top=0;left=0;right=0;bottom=1;" vertex="1" parent="eJCRss2qb-E4OFzYuCk7-136">
          <mxGeometry y="30" width="300" height="30" as="geometry" />
        </mxCell>
        <mxCell id="eJCRss2qb-E4OFzYuCk7-138" value="+" style="shape=partialRectangle;overflow=hidden;connectable=0;fillColor=none;top=0;left=0;bottom=0;right=0;fontStyle=1;" vertex="1" parent="eJCRss2qb-E4OFzYuCk7-137">
          <mxGeometry width="30" height="30" as="geometry">
            <mxRectangle width="30" height="30" as="alternateBounds" />
          </mxGeometry>
        </mxCell>
        <mxCell id="eJCRss2qb-E4OFzYuCk7-139" value="CsharpClassUnit(const std::string&amp; name " style="shape=partialRectangle;overflow=hidden;connectable=0;fillColor=none;top=0;left=0;bottom=0;right=0;align=left;spacingLeft=6;fontStyle=5;" vertex="1" parent="eJCRss2qb-E4OFzYuCk7-137">
          <mxGeometry x="30" width="270" height="30" as="geometry">
            <mxRectangle width="270" height="30" as="alternateBounds" />
          </mxGeometry>
        </mxCell>
        <mxCell id="eJCRss2qb-E4OFzYuCk7-140" value="" style="shape=partialRectangle;collapsible=0;dropTarget=0;pointerEvents=0;fillColor=none;points=[[0,0.5],[1,0.5]];portConstraint=eastwest;top=0;left=0;right=0;bottom=0;" vertex="1" parent="eJCRss2qb-E4OFzYuCk7-136">
          <mxGeometry y="60" width="300" height="30" as="geometry" />
        </mxCell>
        <mxCell id="eJCRss2qb-E4OFzYuCk7-141" value="+" style="shape=partialRectangle;overflow=hidden;connectable=0;fillColor=none;top=0;left=0;bottom=0;right=0;" vertex="1" parent="eJCRss2qb-E4OFzYuCk7-140">
          <mxGeometry width="30" height="30" as="geometry">
            <mxRectangle width="30" height="30" as="alternateBounds" />
          </mxGeometry>
        </mxCell>
        <mxCell id="eJCRss2qb-E4OFzYuCk7-142" value="add(const std::shared_ptr&lt;IUnit&gt;&amp;, Flags): void" style="shape=partialRectangle;overflow=hidden;connectable=0;fillColor=none;top=0;left=0;bottom=0;right=0;align=left;spacingLeft=6;" vertex="1" parent="eJCRss2qb-E4OFzYuCk7-140">
          <mxGeometry x="30" width="270" height="30" as="geometry">
            <mxRectangle width="270" height="30" as="alternateBounds" />
          </mxGeometry>
        </mxCell>
        <mxCell id="eJCRss2qb-E4OFzYuCk7-143" value="" style="shape=partialRectangle;collapsible=0;dropTarget=0;pointerEvents=0;fillColor=none;points=[[0,0.5],[1,0.5]];portConstraint=eastwest;top=0;left=0;right=0;bottom=0;" vertex="1" parent="eJCRss2qb-E4OFzYuCk7-136">
          <mxGeometry y="90" width="300" height="30" as="geometry" />
        </mxCell>
        <mxCell id="eJCRss2qb-E4OFzYuCk7-144" value="+" style="shape=partialRectangle;overflow=hidden;connectable=0;fillColor=none;top=0;left=0;bottom=0;right=0;" vertex="1" parent="eJCRss2qb-E4OFzYuCk7-143">
          <mxGeometry width="30" height="30" as="geometry">
            <mxRectangle width="30" height="30" as="alternateBounds" />
          </mxGeometry>
        </mxCell>
        <mxCell id="eJCRss2qb-E4OFzYuCk7-145" value="compile(unsigned int level = 0) const: string" style="shape=partialRectangle;overflow=hidden;connectable=0;fillColor=none;top=0;left=0;bottom=0;right=0;align=left;spacingLeft=6;" vertex="1" parent="eJCRss2qb-E4OFzYuCk7-143">
          <mxGeometry x="30" width="270" height="30" as="geometry">
            <mxRectangle width="270" height="30" as="alternateBounds" />
          </mxGeometry>
        </mxCell>
        <mxCell id="eJCRss2qb-E4OFzYuCk7-146" value="CsharpMethodUnit" style="shape=table;startSize=30;container=1;collapsible=1;childLayout=tableLayout;fixedRows=1;rowLines=0;fontStyle=1;align=center;resizeLast=1;" vertex="1" parent="1">
          <mxGeometry x="610" y="740" width="470" height="130" as="geometry" />
        </mxCell>
        <mxCell id="eJCRss2qb-E4OFzYuCk7-147" value="" style="shape=partialRectangle;collapsible=0;dropTarget=0;pointerEvents=0;fillColor=none;points=[[0,0.5],[1,0.5]];portConstraint=eastwest;top=0;left=0;right=0;bottom=1;" vertex="1" parent="eJCRss2qb-E4OFzYuCk7-146">
          <mxGeometry y="30" width="470" height="30" as="geometry" />
        </mxCell>
        <mxCell id="eJCRss2qb-E4OFzYuCk7-148" value="+" style="shape=partialRectangle;overflow=hidden;connectable=0;fillColor=none;top=0;left=0;bottom=0;right=0;fontStyle=1;" vertex="1" parent="eJCRss2qb-E4OFzYuCk7-147">
          <mxGeometry width="30" height="30" as="geometry">
            <mxRectangle width="30" height="30" as="alternateBounds" />
          </mxGeometry>
        </mxCell>
        <mxCell id="eJCRss2qb-E4OFzYuCk7-149" value="CsharpMethodUnit(const string&amp; name, const string&amp; returnType, Flags flags) " style="shape=partialRectangle;overflow=hidden;connectable=0;fillColor=none;top=0;left=0;bottom=0;right=0;align=left;spacingLeft=6;fontStyle=5;" vertex="1" parent="eJCRss2qb-E4OFzYuCk7-147">
          <mxGeometry x="30" width="440" height="30" as="geometry">
            <mxRectangle width="440" height="30" as="alternateBounds" />
          </mxGeometry>
        </mxCell>
        <mxCell id="eJCRss2qb-E4OFzYuCk7-150" value="" style="shape=partialRectangle;collapsible=0;dropTarget=0;pointerEvents=0;fillColor=none;points=[[0,0.5],[1,0.5]];portConstraint=eastwest;top=0;left=0;right=0;bottom=0;" vertex="1" parent="eJCRss2qb-E4OFzYuCk7-146">
          <mxGeometry y="60" width="470" height="30" as="geometry" />
        </mxCell>
        <mxCell id="eJCRss2qb-E4OFzYuCk7-151" value="+" style="shape=partialRectangle;overflow=hidden;connectable=0;fillColor=none;top=0;left=0;bottom=0;right=0;" vertex="1" parent="eJCRss2qb-E4OFzYuCk7-150">
          <mxGeometry width="30" height="30" as="geometry">
            <mxRectangle width="30" height="30" as="alternateBounds" />
          </mxGeometry>
        </mxCell>
        <mxCell id="eJCRss2qb-E4OFzYuCk7-152" value="add(const shared_ptr&lt;IUnit&gt;&amp; unit, Flags flags = 0): void" style="shape=partialRectangle;overflow=hidden;connectable=0;fillColor=none;top=0;left=0;bottom=0;right=0;align=left;spacingLeft=6;" vertex="1" parent="eJCRss2qb-E4OFzYuCk7-150">
          <mxGeometry x="30" width="440" height="30" as="geometry">
            <mxRectangle width="440" height="30" as="alternateBounds" />
          </mxGeometry>
        </mxCell>
        <mxCell id="eJCRss2qb-E4OFzYuCk7-153" value="" style="shape=partialRectangle;collapsible=0;dropTarget=0;pointerEvents=0;fillColor=none;points=[[0,0.5],[1,0.5]];portConstraint=eastwest;top=0;left=0;right=0;bottom=0;" vertex="1" parent="eJCRss2qb-E4OFzYuCk7-146">
          <mxGeometry y="90" width="470" height="30" as="geometry" />
        </mxCell>
        <mxCell id="eJCRss2qb-E4OFzYuCk7-154" value="+" style="shape=partialRectangle;overflow=hidden;connectable=0;fillColor=none;top=0;left=0;bottom=0;right=0;" vertex="1" parent="eJCRss2qb-E4OFzYuCk7-153">
          <mxGeometry width="30" height="30" as="geometry">
            <mxRectangle width="30" height="30" as="alternateBounds" />
          </mxGeometry>
        </mxCell>
        <mxCell id="eJCRss2qb-E4OFzYuCk7-155" value="compile( unsigned int level = 0 ) const: string" style="shape=partialRectangle;overflow=hidden;connectable=0;fillColor=none;top=0;left=0;bottom=0;right=0;align=left;spacingLeft=6;" vertex="1" parent="eJCRss2qb-E4OFzYuCk7-153">
          <mxGeometry x="30" width="440" height="30" as="geometry">
            <mxRectangle width="440" height="30" as="alternateBounds" />
          </mxGeometry>
        </mxCell>
      </root>
    </mxGraphModel>
  </diagram>
</mxfile>
